<?xml version="1.0" encoding="UTF-8"?>
<svg width="500px" height="623px" viewBox="0 0 500 623" version="1.1" xmlns="http://www.w3.org/2000/svg" xmlns:xlink="http://www.w3.org/1999/xlink">
    <title>mckinney-map</title>
    <g id="Home" stroke="none" stroke-width="1" fill="none" fill-rule="evenodd">
        <g id="mckinney-map">
            <path d="M0,467.782775 C0.124290511,466.7838 0.991341114,466.046981 1.85938604,465.531605 C2.72643664,465.016229 3.69391398,464.583274 4.29249708,463.770985 C4.9746034,462.846486 5.05315501,461.591313 5.69449404,460.639009 C6.23540634,459.836651 7.11339451,459.337164 7.95956431,458.866473 C9.33769749,458.099864 10.716825,457.331269 12.0949582,456.564659 C13.8350253,455.595475 15.6556327,454.602457 17.6452752,454.500177 C17.988317,454.482302 18.3890297,454.520037 18.5799399,454.806026 C18.7509636,455.063217 18.672412,455.403822 18.6734063,455.712651 C18.6734063,456.82483 20.0227041,457.694713 21.0389033,457.236932 C21.8641923,456.864551 22.2370639,455.929128 22.6864984,455.143652 C23.1359328,454.359168 23.9721594,453.578657 24.8342384,453.854715 C25.1066832,454.938097 25.0112281,456.088011 25.2796956,457.172386 C25.5471687,458.256761 26.3744464,459.354045 27.4920667,459.356031 C28.3352535,459.356031 29.0710533,458.713549 29.4329873,457.952898 C29.7959156,457.193239 29.8605466,456.330307 29.9192118,455.492201 C29.9738996,454.702752 30.0285874,453.913303 30.0832752,453.124848 C30.0991844,452.899433 30.113105,452.666074 30.0325647,452.455554 C29.9172231,452.155663 29.6318521,451.961032 29.3613959,451.786261 C28.2507359,451.068309 26.9700465,450.062383 27.1758716,448.756565 C27.309111,447.908528 28.0747406,447.28392 28.8831261,446.992966 C29.6925059,446.701019 30.5675111,446.664278 31.4116922,446.499437 C33.1825834,446.15486 34.7894111,445.258165 36.3614375,444.375373 C37.2732327,443.863969 38.283466,443.21255 38.4346032,442.179812 C38.6125872,440.964359 37.42437,439.917719 36.2162662,439.686346 C35.0071681,439.452987 33.7702289,439.771745 32.5442273,439.877998 C31.3182257,439.983258 29.5602608,439.922684 29.1157979,438.776742 C28.8682112,438.136246 29.2738954,437.40042 29.8396658,437.009171 C30.4044419,436.618915 31.0984801,436.474928 31.751751,436.263415 C33.656876,435.644766 35.2895561,434.409452 36.8834577,433.195985 C37.6510759,432.611098 38.4196884,432.026211 39.1883009,431.440331 C40.1358917,430.718407 41.1272329,429.941868 41.5637411,428.834653 C41.6880316,428.521853 41.7655889,428.18522 41.9555048,427.907175 C42.649543,426.895291 44.2066546,427.272637 45.3948718,426.955865 C46.8088007,426.579511 47.6818172,425.173399 48.2177579,423.812965 C48.7536986,422.453525 49.1335304,420.966978 50.1407807,419.907429 C50.4559814,419.575761 50.8328303,419.2858 51.0366667,418.875684 C51.2414975,418.466561 51.1937699,417.878694 50.7900743,417.66321 C50.4172028,417.464606 49.9031372,417.658245 49.5670557,417.403039 C49.3681909,417.251107 49.2965995,416.984979 49.2657755,416.736725 C49.0659164,415.166764 49.9130805,413.67128 50.75229,412.329714 C52.7866771,409.074604 54.9612639,405.908865 57.2680957,402.841435 C58.026765,401.832529 59.0558905,400.724322 60.3047615,400.912995 C61.0713854,401.028185 61.6649969,401.614065 62.2864494,402.077804 C62.9088963,402.54055 63.7560604,402.905981 64.4381667,402.537571 C64.8637374,402.308184 65.1103298,401.847424 65.4961276,401.557463 C66.3303655,400.929876 67.6219925,401.22083 68.427395,400.557495 C69.4823728,399.689598 68.8161757,397.811802 67.5812252,397.225922 C66.3452803,396.641035 64.8965501,396.916101 63.5482467,397.141516 C58.5408306,397.979622 53.3912261,397.959762 48.389776,397.083921 C45.6484245,396.6033 42.4765306,395.992595 40.0901528,397.421546 C39.9539304,396.121687 40.0116012,394.801967 40.2591879,393.517996 C40.3158644,393.22307 40.3834784,392.915234 40.3069155,392.623287 C40.1478236,392.009603 39.4289273,391.716663 38.7935542,391.704746 C38.1581811,391.69283 37.522808,391.868594 36.8934009,391.780216 C35.5242166,391.588563 34.5975066,390.162591 34.5179607,388.785276 C34.485148,388.2272 34.5308869,387.587697 34.1281856,387.198434 C33.727473,386.810164 33.080168,386.871731 32.5651081,386.655254 C31.4981984,386.208396 31.2595606,384.731779 30.2920833,384.099227 C29.4797205,383.567963 28.4177824,383.775504 27.4522937,383.872819 C26.486805,383.971128 25.3095253,383.816217 24.8909149,382.941369 C24.0387791,381.158903 27.3966115,379.28508 26.4360945,377.558223 C26.2591048,377.24145 25.9608076,377.014049 25.6863741,376.776718 C24.72884,375.950528 23.9343751,374.698333 24.2605134,373.476922 C24.4196052,372.882105 24.8322497,372.261469 24.5687538,371.704386 C24.3241501,371.188017 23.6012765,371.023177 23.3825252,370.494891 C23.1220123,369.868298 23.8061073,369.186095 24.4842363,369.150346 C25.1623653,369.114597 25.7848122,369.484 26.3913499,369.789849 C27.3538556,370.275435 28.3819867,370.628949 29.4399475,370.835496 C29.745205,370.895077 30.0892412,370.934798 30.3408052,370.753076 C30.7275972,370.474038 31.1034517,369.195032 30.9841329,368.733279 C32.3195101,367.724373 34.4274772,369.878228 35.7837352,368.897127 C36.05618,368.699516 36.2391356,368.400618 36.3773467,368.093776 C37.2632895,366.126609 36.5404158,363.854585 36.4698188,361.697752 C36.4529153,361.175425 36.4797621,360.633237 36.7074623,360.161554 C37.2911305,358.947094 38.8750888,358.682951 40.219415,358.57372 C42.7678676,358.366179 45.3163202,358.159631 47.8647729,357.953084 C48.242616,357.9223 48.6602321,357.872649 48.9098075,357.588647 C49.0460299,357.432743 49.1116553,357.229174 49.1633601,357.029578 C49.4447538,355.943217 49.4159184,354.70989 48.7666248,353.794328 C47.9134947,352.591784 46.2320927,352.269053 44.7714306,352.479573 C43.3107685,352.690093 41.9445673,353.321651 40.5037917,353.642396 C39.0630161,353.963141 37.0077482,353.843979 35.8284798,352.956221 C34.5418244,351.987036 33.1626969,350.876843 32.8494848,349.297946 C32.7619843,348.861018 32.755024,348.383377 32.4925225,348.023905 C32.3175215,347.784587 32.0500483,347.629677 31.7785978,347.511508 C30.6391024,347.014999 29.3464811,347.048762 28.1334057,346.780647 C26.919336,346.513525 25.6386466,345.75486 25.452708,344.527491 C25.3244402,343.678461 25.774869,342.828438 26.3983102,342.2366 C28.1870992,340.540527 30.9891045,340.701396 33.4411077,340.972489 C35.1225097,341.158183 36.8218096,341.34785 38.4157111,341.912877 C38.4912797,341.282311 37.9006512,340.803676 37.4661316,340.34093 C36.1456692,338.934818 36.0323162,336.557535 37.2125789,335.031267 C37.5238024,334.629095 37.9125831,334.280546 38.1412776,333.825744 C38.3699722,333.371935 38.3868757,332.7513 38.0020723,332.417646 C37.4372962,331.927095 36.5294783,332.431548 36.160584,333.080981 C35.7916898,333.731408 35.6673993,334.527807 35.1583054,335.073967 C34.4344374,335.849513 32.9548832,336.196076 33.0443724,337.251654 C33.0911056,337.794834 33.5703698,338.429372 33.1656799,338.794802 C32.6496257,339.135407 31.904877,338.832537 31.5687954,338.314182 C31.2317195,337.794834 31.2008955,337.140436 31.2078558,336.522779 C31.2277423,334.716481 32.3483455,332.739383 32.2837144,330.934078 C32.2220663,329.228075 32.3543114,327.48235 32.9966448,325.901467 C33.6399725,324.318597 34.8480763,322.909506 36.4499324,322.312703 C37.0037709,322.106155 37.6431213,322.00586 38.1740903,322.266031 C38.927788,322.63444 39.1843236,323.552981 39.6188432,324.26994 C40.0533628,324.985905 41.1262385,325.541995 41.6741111,324.907457 C42.0609032,324.458613 41.8560724,323.777403 41.9077773,323.188544 C42.0022381,322.115092 43.0442897,321.309755 44.1131881,321.15981 C45.1820865,321.008871 46.2549622,321.373308 47.239343,321.816194 C48.2227295,322.260073 49.181258,322.793323 50.2372301,323.014766 C51.4920671,323.278908 52.7966203,323.086263 54.0743268,323.196488 C56.6575808,323.419917 59.137425,324.877666 61.6968152,324.461592 C62.5877296,324.316611 63.4488143,323.945223 64.3516605,323.962104 C65.2545068,323.979978 66.1185744,324.890575 66.1136028,325.791242 C67.3604852,325.841886 68.2613428,327.034499 68.6590725,328.21619 C69.0558078,329.39788 69.1532516,330.689796 69.7568063,331.781122 C70.433941,330.523962 71.11207,329.267795 71.7892047,328.010635 C72,327.619387 72.2267073,327.211257 72.6035561,326.974918 C72.9326774,326.769364 73.3343843,326.722692 73.7201821,326.680985 C75.5855341,326.480396 77.5413695,326.291723 79.2774594,326.999744 C80.0301627,327.306586 80.7063031,327.769332 81.4321597,328.13377 C84.1198177,329.48328 87.2738137,329.402846 90.2796554,329.290635 C90.5163045,329.281697 90.7628969,329.270774 90.968722,329.153598 C91.579237,328.807035 91.3833551,327.832885 90.8792328,327.344321 C90.3751105,326.854763 89.6701347,326.587642 89.2395924,326.032545 C88.3218313,324.851848 89.1471203,323.067396 90.3343432,322.158785 C91.5215662,321.249181 93.0279672,320.785442 94.1097918,319.752704 C95.125991,318.783519 95.7921881,317.307896 97.1414859,316.915654 C97.632682,316.773652 98.1537079,316.799471 98.6647904,316.826282 C99.9862471,316.89778 101.307704,316.968284 102.629161,317.038788 C103.35104,317.077516 104.172352,317.078509 104.665536,316.551217 C105.231307,315.944483 105.062272,314.977284 105.326762,314.191808 C105.60915,313.357673 106.355887,312.788674 106.97734,312.16506 C107.597798,311.541445 108.150642,310.670569 107.891124,309.830476 C107.117539,309.638824 106.258443,309.839413 105.650911,310.352803 C105.165681,310.760933 104.811702,311.365681 104.210136,311.56627 C103.60857,311.765867 102.793224,311.048908 103.224761,310.584176 C102.459131,310.324999 101.623899,310.73015 101.003441,311.246519 C100.381988,311.762888 99.8520134,312.409342 99.1271511,312.766828 C98.4022889,313.124314 97.3721691,313.069698 96.9585303,312.375579 C96.6433296,311.845308 96.7994384,311.162112 96.629409,310.568288 C96.3609415,309.631873 95.3268445,309.108553 94.3543955,309.024146 C93.3829409,308.940733 92.4134749,309.178064 91.4390373,309.211826 C86.6951171,309.37766 82.9753507,303.57844 85.8986635,299.541825 C86.6563384,298.496177 87.888306,297.923206 89.0655857,297.392935 C90.4188608,296.783223 91.8198634,296.161594 93.3043893,296.14372 C93.7100735,296.138755 94.1286839,296.177482 94.512493,296.045411 C94.8953078,295.912347 95.236361,295.536986 95.1637753,295.138786 C95.125991,294.92926 94.9828083,294.749523 94.9529786,294.539004 C94.9032624,294.190455 95.1727242,293.881626 95.4372144,293.650253 C96.4056861,292.804203 97.6038466,292.223288 98.8686269,291.987943 C99.5487445,291.860836 100.347187,291.771465 100.709121,291.183599 C101.080004,290.579844 100.76878,289.790395 100.367073,289.206501 C99.9663607,288.6236 99.4562724,288.044671 99.424454,287.337643 C99.4125221,287.05364 99.4791419,286.764672 99.4085448,286.491592 C99.2772941,285.98416 98.7234556,285.703136 98.2054127,285.627667 C97.6863755,285.552198 97.1504348,285.615751 96.6423352,285.488645 C95.5803971,285.222516 94.843603,284.037847 95.0762748,282.970353 C95.3089466,281.901867 96.4723058,281.129299 97.5481645,281.328896 C98.6846769,281.539415 99.9216161,282.615846 100.800599,281.866118 C101.127731,280.900905 100.279573,279.658641 100.963668,278.901962 C101.301738,278.52958 101.860548,278.487873 102.338818,278.33197 C103.964538,277.802691 104.671502,275.959651 105.747361,274.631987 C106.975351,273.119622 108.890419,272.185193 110.840289,272.148451 C112.092143,272.124619 113.443429,272.430468 114.53122,271.812812 C115.362475,271.340135 115.830801,270.437483 116.448277,269.707615 C117.148281,268.880432 118.161497,268.228019 119.244316,268.283628 C120.327135,268.339237 121.480551,269.573558 121.328419,270.647009 C122.553427,270.027367 123.242493,268.7285 124.032981,267.608377 C124.823468,266.48726 126.007708,265.395934 127.369932,265.56574 C128.059993,265.65114 128.761986,266.057284 129.408297,265.803071 C129.746367,265.670007 129.994948,265.376074 130.313132,265.201303 C131.107597,264.764375 132.159592,265.196338 132.692549,265.929184 C133.226501,266.661038 133.361729,267.603412 133.438292,268.505071 C133.482043,269.023426 133.519827,269.566607 133.791277,270.009492 C134.063722,270.453371 134.658328,270.750283 135.119694,270.509973 C135.195263,269.404745 135.269837,268.299517 135.345406,267.193295 C135.36927,266.844746 135.394128,266.488253 135.529356,266.16453 C135.882341,265.321458 136.874676,264.93716 137.785477,264.848782 C138.697272,264.760403 139.635914,264.873607 140.515891,264.619395 C141.394874,264.364189 142.226129,263.560838 142.079963,262.659179 C141.92982,261.739645 140.839047,260.939273 141.239759,260.098187 C141.576835,259.390166 142.606955,259.491454 143.353692,259.732757 C145.076856,260.292819 146.749309,261.009777 148.341222,261.874695 C149.15259,262.314602 149.950038,262.798201 150.630156,263.422809 C151.984425,264.665074 153.034431,265.960961 154.557736,266.99072 C154.813277,267.163505 155.13345,267.203226 155.422798,267.309478 C155.821522,267.455452 156.158598,267.725553 156.488713,267.991681 C157.433321,268.754318 158.660317,269.737406 159.293702,270.772129 C159.716289,271.461283 158.650374,272.316271 158.925802,273.075929 C159.015291,273.323191 159.232053,273.499948 159.44981,273.647907 C161.559766,275.088775 164.641177,274.897123 166.556245,273.207008 C166.88636,272.915061 167.191618,272.580414 167.59233,272.395713 C168.269465,272.084898 169.06393,272.268606 169.804702,272.179235 C170.995902,272.034254 171.967356,271.199127 173.025317,270.631121 C175.241666,269.438507 178.057591,269.4395 180.272945,270.633107 C181.20761,271.136567 182.037871,271.835651 183.025235,272.227893 C184.01061,272.621128 185.265447,272.631058 186.00423,271.869414 C186.504375,271.355031 186.965741,270.459329 187.639893,270.705597 C187.990889,270.833697 188.146998,271.227924 188.293164,271.571508 C188.794303,272.746248 189.628541,273.776007 190.67457,274.509846 C192.008953,275.447255 193.87331,276.190031 194.034391,277.811629 C194.183539,279.301154 192.684099,280.673504 193.065919,282.121323 C193.386092,283.335783 194.897464,283.959398 195.177864,285.183788 C195.403575,286.171841 194.739367,287.234369 195.074454,288.190645 C195.378717,289.057549 196.369064,289.466672 196.913953,290.205477 C197.255007,290.669216 197.406144,291.240201 197.600037,291.781395 C198.203592,293.465552 199.923772,295.220214 201.143808,296.52901 C202.083444,297.537916 203.870245,297.581609 204.529482,298.791104 C204.764142,299.222073 204.804909,299.729505 204.819824,300.219062 C204.853631,301.360039 204.716414,302.615213 204.570249,303.748246 C204.489709,304.375832 204.38431,305.055056 203.92891,305.495956 C203.587857,305.825638 203.111575,305.960688 202.676061,306.147375 C200.942955,306.888166 199.765675,308.494868 198.673907,310.030073 C201.538555,309.466039 204.449936,309.134371 207.368277,309.041027 C208.484903,309.005279 209.785479,309.092664 210.429801,310.004254 C210.858354,310.610988 210.858354,311.410366 211.051253,312.128318 C211.427108,313.523507 212.559643,314.667463 212.722712,316.102373 C212.835071,317.089432 212.466176,318.077484 212.525836,319.068515 C212.56362,319.707025 212.7774,320.318724 212.945441,320.936381 C213.523143,323.055479 213.57087,325.278845 213.613626,327.474406 C213.633513,328.480333 214.002407,329.499168 213.230812,330.145622 C211.595149,331.514993 210.223976,333.198157 209.212748,335.075953 C208.653938,336.115642 208.199532,337.219877 207.500522,338.171188 C206.800518,339.121505 205.790285,339.927835 204.613999,340.039053 C203.072797,340.185027 201.609152,339.131435 200.067949,339.2645 C199.186978,339.339969 198.349757,339.82754 197.849612,340.554429 C196.567929,342.417329 197.661685,345.14912 196.551025,347.118273 C195.403575,349.151972 192.371881,349.563081 191.333807,351.654376 C190.937071,352.453754 190.664627,353.602675 189.772718,353.643389 C189.312346,353.664242 188.914616,353.340519 188.470153,353.22235 C188.006798,353.099216 187.486767,353.218378 187.122844,353.529192 C186.656506,353.927392 186.478522,354.57186 186.067866,355.026662 C185.232634,355.951161 183.742142,355.824055 182.565857,355.409967 C181.389571,354.995879 180.212292,354.360348 178.975353,354.513272 C176.958863,354.761526 175.775618,357.515163 176.982727,359.145698 C177.719521,360.139708 178.996233,360.567698 179.904051,361.408784 C181.849943,363.210117 181.631192,366.267617 181.600368,368.91798 C181.578493,370.797762 181.72963,372.678536 182.048808,374.530513 C182.295401,375.961451 182.670261,377.43211 183.610891,378.538331 C184.342714,379.399277 185.357919,379.970262 186.154372,380.770634 C187.698558,382.324706 189.111492,385.41994 187.588188,386.995859 C186.799689,387.812119 185.990309,388.662142 185.6065,389.729635 C185.223685,390.798122 185.389737,392.149618 186.297555,392.830828 C186.902104,393.284637 187.709495,393.364078 188.376687,393.719578 C189.043878,394.076071 189.556949,394.997591 189.059787,395.56659 C188.862911,395.792998 188.560637,395.8923 188.274271,395.982665 C187.108924,396.347102 185.943576,396.712532 184.778228,397.077963 C183.889302,397.356007 182.784608,398.017357 183.077934,398.901142 C183.404072,399.884229 184.968144,399.612142 185.718859,400.327115 C186.392016,400.968604 186.133492,402.066881 186.244856,402.989394 C186.338322,403.76792 186.726109,404.475941 186.992588,405.213753 C188.348846,408.960407 186.559062,413.219458 187.576256,417.071371 C188.170862,419.32552 189.717036,421.507179 189.168169,423.772252 C188.930525,424.753353 188.32001,425.594438 187.772138,426.443468 C186.31943,428.691659 184.745415,431.360889 184.114019,433.961601 C183.527368,436.378605 182.61955,438.719147 181.422384,440.899813 C180.874512,441.895809 180.24411,442.974226 180.450929,444.09137 C180.594112,444.870889 181.130053,445.525287 181.333889,446.290903 C181.754488,447.868808 180.709454,449.425859 179.721096,450.726711 C178.376769,452.495275 177.031449,454.263839 175.687123,456.033395 C174.518792,457.570586 173.298756,459.249778 173.253017,461.178217 C173.23512,461.950785 173.407138,462.751157 173.146625,463.479038 C172.794634,464.47007 171.679002,465.235686 171.840083,466.275375 C171.962385,467.071775 172.786679,467.540479 173.220205,468.220696 C173.583133,468.789695 173.659696,469.489772 173.725321,470.162044 C173.819782,471.124278 173.902311,472.138149 173.49961,473.015976 C173.095914,473.894796 171.760537,474.989101 170.881554,474.58395 C166.948008,475.438938 162.771847,475.153942 158.991427,473.772655 C158.170115,473.472764 157.347809,473.118257 156.473798,473.078536 C153.648924,472.948451 151.60161,476.026804 148.794634,476.382304 C148.96864,475.930481 149.144636,475.449861 149.056141,474.974206 C148.96864,474.498551 148.504291,474.057651 148.035964,474.179792 C147.82119,474.236394 147.650167,474.394284 147.492069,474.549194 C146.714508,475.311832 145.99064,476.152917 145.053986,476.706028 C144.116339,477.259138 142.883377,477.47363 141.951695,476.910589 C141.610642,476.704042 141.329248,476.406137 140.978252,476.218456 C140.183787,475.792452 139.218298,475.999 138.319429,476.066525 C135.867426,476.251226 133.477071,475.312825 131.029045,475.096347 C128.580025,474.878876 125.658701,475.753724 124.903014,478.088308 C124.628581,478.936345 124.672331,479.897585 124.197044,480.650292 C123.869912,481.167654 123.334965,481.522161 122.989935,482.025621 C122.502716,482.735628 122.432119,483.679988 121.890212,484.348288 C121.010236,485.43167 119.287072,485.364145 118.214196,486.257861 C117.410782,486.928147 116.988195,488.120761 115.975973,488.389869 C114.983637,488.654011 114.033064,487.865555 113.018853,487.708659 C110.622532,487.33727 109.196671,490.298448 107.076772,491.473187 C106.170943,491.974661 105.072215,492.170285 104.343375,492.904125 C104.047067,493.20203 103.833287,493.571432 103.54891,493.881254 C103.014958,494.463162 102.27021,494.798802 101.547336,495.118553 C99.715791,495.928855 97.6833926,496.755046 95.7663357,496.173138 C94.8356484,495.890128 93.80354,495.29531 92.975268,495.804728 C92.3190141,496.2069 92.1967123,497.081748 91.9371937,497.806651 C90.965739,500.512623 87.7481063,501.492731 85.0703915,502.548308 C83.8881402,503.015026 82.5925359,503.742908 82.3737846,504.993117 C82.2902614,505.475723 82.3727903,506.013938 82.0933852,506.41611 C81.5992061,507.127111 80.4616994,506.806366 79.7955022,506.253255 C79.1302994,505.698159 78.4670853,505.18179 77.674609,504.831255 C76.6763076,504.391348 75.809257,505.707096 75.6432049,506.785513 C75.4781471,507.862936 75.2862425,509.237272 74.229276,509.514324 C73.4914875,509.706969 72.7765685,509.205496 72.0725871,508.911563 C70.9579498,508.445837 69.6374874,508.501446 68.565606,509.059522 C67.6319357,509.545108 66.915028,510.369312 66.0052215,510.896604 C65.0944206,511.425882 63.7848958,511.565898 63.1017952,510.766519 C62.8571914,510.48053 62.729918,510.114106 62.5330418,509.793362 C61.9245154,508.800345 60.6547636,508.327668 59.4973703,508.474635 C58.3409714,508.621602 57.3038914,509.308769 56.5283186,510.179646 C55.8472066,510.943276 55.3281695,511.863803 54.5257499,512.500327 C51.611386,514.809092 46.7918972,512.26101 43.7850611,514.44962 C43.0830683,514.96003 42.5590595,515.688905 41.8441405,516.181442 C41.1292215,516.674971 40.0672834,516.866624 39.4418535,516.263862 C38.5161378,515.37114 39.4199784,513.755501 40.5674284,513.173592 C41.1252442,512.890583 41.7476911,512.706874 42.2120404,512.287821 C42.6763898,511.868768 42.9130389,511.094214 42.5033774,510.622531 C42.2856204,510.372291 41.9475502,510.271003 41.6253892,510.194541 C38.3053411,509.406085 34.6591547,510.104176 31.8670926,512.063399 C31.1511793,512.564873 30.4700673,513.155718 29.6358294,513.417875 C27.741642,514.012692 25.5093844,512.349388 25.5412028,510.36534 C25.5521404,509.711934 25.8007214,509.024766 26.3416337,508.654371 C26.9372338,508.246241 27.9494557,508.041679 27.8748814,507.324721 C27.3051337,507.253224 26.9103871,506.658406 26.8934836,506.084442 C26.8765801,505.510479 27.1500192,504.968291 27.4701915,504.49065 C28.4376689,503.044817 29.9052912,501.939589 31.5628295,501.406338 C32.1285999,501.223623 32.7331489,501.09751 33.2054529,500.738038 C33.6787511,500.378566 33.9690938,499.683453 33.6558817,499.179994 C31.8004729,498.775836 30.146912,500.28125 28.4217597,501.076657 C26.9720352,501.744957 25.3512869,501.921714 23.7643457,502.090527 C21.2666036,502.357649 18.7708501,502.622784 16.273108,502.888913 C14.2407096,503.105391 12.011435,503.275197 10.3260556,502.119325 C10.7864277,500.174004 13.1618679,499.200847 15.055061,498.550421 C15.414012,498.426294 15.8077643,498.26046 15.9559186,497.909925 C16.0802091,497.614999 15.9897256,497.273401 16.0603226,496.959607 C16.1905791,496.380678 16.8279408,496.059934 17.417575,495.980492 C18.0072092,495.901051 18.6177242,495.979499 19.1904549,495.817637 C20.5934462,495.419437 21.2059498,493.813729 21.6185943,492.416553 C21.6802424,492.210006 21.7389075,491.976647 21.6325148,491.787973 C21.5181676,491.585398 21.258649,491.519859 21.0259771,491.501985 C20.252393,491.44439 19.460911,491.703567 18.8732655,492.210006 C18.4437175,492.579408 18.1255338,493.068966 17.675105,493.414536 C17.2246761,493.760106 16.5495301,493.92594 16.1040729,493.574411 C15.9241002,493.433403 15.8087586,493.227848 15.6745249,493.041161 C15.0838964,492.214971 14.1243736,491.745274 13.3527782,491.083924 C12.582177,490.422575 11.968679,489.335221 12.4051873,488.417673 C12.6010691,488.00855 12.974935,487.708659 13.1936863,487.311452 C13.4124376,486.913252 13.3915568,486.301553 12.971952,486.127775 C12.0343044,487.051281 11.0976511,487.973794 10.1609978,488.8973 C9.70758605,489.344158 9.05133216,489.823785 8.49948229,489.50602 C8.26283316,489.37097 8.12263346,489.118743 7.98541674,488.883398 C7.04876345,487.28464 5.7094089,485.940095 4.86821073,484.290693 C4.02701255,482.640299 3.79831801,480.450696 5.03525717,479.072388 C6.02958126,477.963188 7.64436358,477.705996 8.93897354,476.968184 C9.69167687,476.539201 10.3359989,475.94637 11.0171109,475.411133 C13.5158473,473.450917 16.598252,472.241422 19.7651742,471.981252 C21.0170282,471.877978 22.406099,471.87202 23.3308204,471.02299 C23.5694581,470.80254 23.768323,470.525489 23.8309654,470.207723 C23.9671878,469.519562 23.4193152,468.846297 22.7670386,468.587119 C22.114762,468.328935 21.3859224,468.381564 20.6859183,468.427243 C15.1853174,468.785722 9.66582444,468.475901 4.16323495,468.16608 C2.85569878,468.092596 1.30654185,467.857251 0,467.782775" id="Fill-3" fill="#EEEFF0"></path>
            <path d="M320.075906,517.913264 C319.387834,519.738429 317.640807,520.901253 316.076735,522.067055 C312.745749,524.555556 309.825419,527.594189 307.475832,531.022084 C307.278955,531.308073 307.082079,531.608957 307.027391,531.950555 C306.945857,532.451036 307.179523,532.940593 307.362479,533.41327 C308.012767,535.094448 307.954101,537.252274 306.574974,538.415097 C304.921413,539.810287 302.429637,539.091342 300.287863,539.409108 C298.042679,539.742761 295.77562,541.281938 293.686545,540.396167 C292.945774,540.08138 292.360117,539.496493 291.676022,539.073468 C288.142194,536.886844 283.325688,539.510395 279.441858,538.028814 C278.564864,537.694167 277.757473,537.153965 276.83474,536.976215 C276.010446,536.818326 275.161293,536.962313 274.334015,537.108287 C271.330162,537.633593 268.327304,538.160885 265.323451,538.686191 C264.192904,538.883801 262.768038,538.516385 261.620588,538.537238 C260.02072,538.569015 258.135482,538.757688 257.333062,540.139968 C256.930361,540.834087 256.908486,541.686096 256.588313,542.422915 C256.35763,542.953186 255.979787,543.406002 255.708337,543.916413 C255.438875,544.42881 255.282766,545.05739 255.531347,545.58071 C255.924105,546.412858 257.16701,546.662105 257.389739,547.554828 C257.45437,547.81897 257.413602,548.098008 257.352949,548.364137 C257.016867,549.817914 256.044418,551.112809 254.740859,551.842676 C253.4373,552.571551 251.823512,552.724476 250.406601,552.251799 C249.022501,551.791039 247.701045,550.754329 246.273195,551.051242 C245.423048,551.227999 244.72901,551.871474 244.298468,552.623188 C243.867925,553.375895 243.667072,554.234855 243.49406,555.083884 C242.980988,557.605155 242.671754,560.168133 242.570332,562.738061 C242.517633,564.079628 242.513656,565.462901 242.001579,566.705165 C241.586946,567.708112 240.86805,568.551184 240.160091,569.375388 C239.554548,570.081424 238.94801,570.788452 238.341472,571.494487 C237.173141,572.856907 235.24813,573.811196 234.562046,575.469535 C234.169288,576.419853 233.940594,577.49529 233.194851,578.204305 C232.295982,579.059292 230.933758,579.123839 229.706762,579.310526 C226.786432,579.75639 223.839255,581.409764 222.798198,584.171345 C222.428309,585.15046 222.261263,586.304346 221.431002,586.944842 C220.908982,587.349 220.204006,587.472134 219.709827,587.909062 C219.323035,588.251653 219.113233,588.747168 218.927294,589.228782 C218.395331,590.602125 217.959817,592.012209 217.622741,593.445133 C217.439786,594.223658 217.240921,595.080632 216.596599,595.554302 C216.104408,595.917746 215.4402,595.979313 214.941049,596.332827 C214.136641,596.900833 213.989481,598.019963 213.44658,598.841189 C213.028964,599.472748 212.383648,599.912654 211.755235,600.335679 C210.483494,601.192653 209.212748,602.048634 207.941008,602.905608 C207.379214,603.284941 206.797535,603.671224 206.133326,603.803296 C204.437009,604.141915 202.520947,602.779495 201.055313,603.699029 C199.173058,604.879726 196.652446,605.613566 195.188801,607.2868 C193.52828,609.186442 193.586945,611.98973 193.748026,614.507028 C193.798736,615.293498 193.876293,616.145507 194.405274,616.730394 C195.179852,617.583396 196.548042,617.482108 197.652736,617.149447 C198.749476,616.818772 199.796499,616.327229 200.752044,615.69567 C201.474918,615.216043 202.198786,614.559658 202.270377,613.695733 C202.287281,613.488193 202.264411,613.274694 202.326059,613.07609 C202.445378,612.693779 202.853051,612.462406 203.251775,612.425664 C203.650499,612.389916 204.045246,612.510071 204.427066,612.629233 C205.05349,612.824857 205.67892,613.019489 206.305344,613.215113 C208.199532,613.805958 210.227953,614.490147 211.38634,616.099828 C212.164896,617.18321 212.438335,618.613155 212.114186,619.907056 C211.870576,620.878227 212.222567,621.765984 212.97527,622.428327 C213.726979,623.090669 214.921163,623.189971 215.773298,622.660693 C216.627423,622.129429 217.085806,621.092719 217.975726,620.624014 C218.671753,620.258584 219.555707,620.285396 220.161251,619.784915 C220.748896,619.299329 220.895062,618.468174 221.299752,617.820727 C221.69947,617.18321 222.381576,616.665848 222.460128,615.917113 C222.605299,614.532847 220.584833,613.462374 221.036256,612.143647 C221.281854,611.424703 222.151887,611.141693 222.911551,611.096014 C223.671215,611.050335 224.485566,611.129777 225.143809,610.747465 C226.043672,610.225138 226.301202,609.066287 226.909728,608.223215 C227.499362,607.407948 228.415135,606.900516 229.300083,606.420889 C229.672955,606.218314 230.061735,606.011766 230.486312,605.995878 C231.249953,605.968073 231.915156,606.563884 232.678796,606.611548 C233.738746,606.677087 234.572984,605.665203 234.874264,604.649346 C235.175544,603.631504 235.140743,602.53422 235.485773,601.531272 C235.830804,600.528325 236.776406,599.580986 237.819452,599.783562 C239.632105,600.136083 241.705271,600.086432 243.508974,599.686246 C245.51552,599.240381 247.346071,598.214595 249.320799,597.649568 C251.296521,597.082555 253.633182,597.064681 255.177368,598.419156 C255.781917,598.949427 256.222402,599.656456 256.863741,600.142041 C257.506075,600.626634 258.499404,600.821265 259.076112,600.261203 C259.464893,599.882864 259.536484,599.297976 259.708502,598.783594 C259.879526,598.269211 260.300125,597.728016 260.83706,597.804479 C260.781378,598.68032 261.097573,599.574035 261.693173,600.220489 C263.784237,602.490527 267.81821,600.933476 270.4651,602.524289 C271.814398,603.335585 272.571079,604.832061 273.650915,605.978003 C275.178197,607.600594 277.432329,608.514169 279.659615,608.413875 C280.637036,608.370182 281.676104,608.096109 282.29358,607.338437 C283.438047,605.933318 282.572985,603.70598 283.426115,602.107222 C283.9193,601.180737 284.894732,600.639543 285.751839,600.032809 C286.802839,599.288046 287.737504,598.381422 288.512083,597.353649 C289.021176,596.677404 289.470611,595.924697 289.587941,595.088576 C289.705271,594.251463 289.424872,593.316041 288.725862,592.842371 C288.344042,592.584187 287.878698,592.481906 287.476991,592.254505 C287.076279,592.028097 286.723294,591.589184 286.833663,591.143319 C287.385513,591.100619 287.952278,591.052954 288.446457,590.805693 C288.940636,590.558432 289.350298,590.057951 289.318479,589.506827 C289.29561,589.100683 289.048023,588.749154 288.878988,588.380745 C288.340064,587.206999 288.635379,585.703571 289.581975,584.822764 C290.488799,583.976714 291.542782,583.16244 292.54705,582.434558 C294.251321,581.198252 295.965536,579.954001 297.422221,578.435678 C298.113276,577.717726 298.754615,576.92927 299.602773,576.403964 C302.443557,574.646324 306.329376,576.455601 309.423712,575.190497 C310.166472,574.886634 310.829687,574.415944 311.563498,574.09222 C313.357258,573.302772 315.454288,573.457682 317.305719,574.098178 C319.158145,574.738674 320.816678,575.826028 322.452341,576.903452 C326.016993,579.248959 329.870993,581.998623 330.804663,586.158373 C330.946852,586.797876 331.095006,587.560513 331.696572,587.817704 C332.400553,588.119582 333.151268,587.480078 333.547009,586.824687 C334.633805,585.027326 334.691476,582.654015 333.693175,580.807003 C333.614623,580.663015 333.528117,580.51307 333.532094,580.349222 C333.53806,580.003652 333.915903,579.800083 334.243036,579.688865 C335.978131,579.096034 337.87729,578.988788 339.669062,579.382023 C341.536403,579.792139 343.23968,580.72061 344.988696,581.492185 C346.738707,582.263759 348.634883,582.895318 350.532053,582.659973 C352.430218,582.423635 354.304519,581.096964 354.622702,579.21321 C354.767874,578.352264 354.584918,577.461528 354.738044,576.600582 C354.982648,575.225253 356.16291,574.067395 357.544027,573.845952 C359.497873,573.534145 361.503425,572.391182 363.465226,572.141934 C365.429017,571.89368 367.808434,572.754626 368.223067,574.687038 C368.310568,575.092189 368.305596,575.524151 368.473637,575.903484 C368.804747,576.652219 369.705604,576.972963 370.523933,577.018642 C371.341268,577.064321 372.173517,576.916361 372.976931,577.081202 C375.047113,577.50522 376.136893,579.744474 377.821278,581.020501 C379.715465,582.456404 382.523436,582.552727 384.512084,581.247902 C385.721183,580.455475 386.58525,579.248959 387.421477,578.07124 C388.162248,577.0246 388.904014,575.979946 389.64578,574.933306 C389.934134,574.527162 390.228454,574.107115 390.348767,573.622523 C390.667945,572.339545 389.642797,571.068483 388.457562,570.48161 C387.271334,569.894736 385.914081,569.756707 384.674159,569.293961 C383.434237,568.831215 382.215196,567.860044 382.129684,566.541317 C385.344334,567.969276 388.901031,568.621688 392.415967,568.42805 C394.206744,568.328748 396.120818,568.037794 397.706765,568.877887 C399.127654,569.631587 400.28803,571.269072 401.880938,571.042664 C403.15765,570.858956 403.898421,569.558104 404.842035,568.679283 C406.030252,567.572069 407.657961,567.086484 409.231976,566.682326 C412.885122,565.741938 416.600911,565.039875 420.345536,564.581101 C423.846551,564.152118 427.506658,563.528503 430.946025,564.304049 C434.385392,565.078603 437.628877,566.540324 440.789833,568.101347 C441.4789,568.441952 442.181887,568.79348 442.945528,568.889803 C444.759175,569.118197 446.42964,567.872953 447.625811,566.492659 C448.820989,565.112365 449.813324,563.492754 451.35751,562.515625 C453.591756,561.099583 456.459387,561.332942 459.025737,560.686488 C461.072056,560.172105 462.966243,559.062905 464.415968,557.531672 C465.084154,556.82663 465.682737,556.015335 466.539844,555.558547 C467.359167,555.123605 468.317696,555.061045 469.244406,555.007422 C470.670266,554.925995 472.095133,554.844567 473.519999,554.76314 C474.476539,554.709517 475.635921,554.513893 475.973991,553.618191 C476.17385,553.08792 475.993878,552.501047 475.898423,551.941978 C475.484784,549.537883 476.868883,546.939157 479.096169,545.938196 C480.649303,545.239112 482.009538,544.519174 483.616366,543.956133 C486.039534,543.108097 488.321508,541.857888 490.34098,540.274026 C490.959449,539.78844 491.56201,539.262141 491.983603,538.598806 C492.406191,537.933484 492.626931,537.158931 492.748239,536.380405 C492.988865,534.827326 492.846677,533.217645 492.339571,531.731098 C492.052212,530.891006 491.646527,530.075739 491.561016,529.19096 C491.34127,526.899077 493.291139,524.908077 493.439294,522.608249 C493.490004,521.822773 493.252361,520.929057 492.556334,520.557669 C492.237156,520.38687 491.866273,520.351121 491.505333,520.328282 C486.881726,520.034348 482.332694,521.396768 477.89602,522.726418 C476.641183,523.101779 475.378391,523.477139 474.079804,523.657868 C473.820285,523.693617 473.544857,523.721421 473.300254,523.624106 C472.714597,523.39174 472.604227,522.639033 472.397407,522.045208 C472.01161,520.940973 471.036178,520.124713 469.968274,519.647072 C468.898381,519.168437 467.729056,518.976785 466.578623,518.756335 C464.445798,518.346219 462.335842,517.818927 460.260688,517.176445 C460.006141,517.097997 459.702872,516.958974 459.688951,516.691853 C459.674036,516.444591 459.921623,516.272799 460.142363,516.159595 C461.712401,515.357237 463.453462,514.96003 465.118955,514.379115 C466.784448,513.799193 468.448946,512.979954 469.511879,511.573842 C470.619556,510.106162 471.692432,508.516342 471.852518,506.685218 C472.013598,504.855087 471.667574,503.020984 471.314589,501.216672 C471.201236,500.635757 471.060042,500.009163 470.605635,499.630824 C470.3491,499.416332 470.020973,499.309086 469.743556,499.122399 C469.46614,498.936705 469.227502,498.613974 469.310031,498.29025 C469.389577,497.973478 469.73063,497.803672 470.046825,497.716286 C471.844563,497.216799 473.737756,498.067814 475.603108,498.003268 C477.597722,497.93475 479.392477,496.83548 481.063936,495.745147 C482.709543,494.671696 484.474468,493.378787 484.86126,491.453327 C484.952738,491.001504 484.957709,490.523863 484.799612,490.090907 C484.452593,489.144562 483.380711,488.536835 483.237529,487.539846 C483.221619,487.421677 483.219631,487.296557 483.271336,487.188318 C483.414518,486.888426 483.836112,486.902329 484.16921,486.908287 C485.592088,486.933112 486.948346,485.81994 487.19991,484.419786 C487.706021,481.602596 490.512004,479.586771 492.782046,477.840054 C493.680915,477.148914 494.697114,476.543173 495.29868,475.582925 C496.099111,474.306898 496.002661,472.689273 495.943996,471.184852 C495.810757,467.83044 496.022548,464.363817 497.46034,461.329156 C498.289607,459.581446 499.523563,457.970772 499.819871,456.059214 C500.165896,453.823932 499.904389,451.537013 499.918309,449.275913 C499.927258,447.9125 499.935213,446.546109 499.812911,445.187661 C499.710496,444.02881 499.512625,442.880882 499.314755,441.73494 C499.128816,440.653544 498.941883,439.572149 498.755945,438.491746 C498.49046,436.956541 498.223981,435.410413 497.688041,433.946706 C496.994002,432.055008 495.853513,430.328151 494.382907,428.94885 C493.424379,428.049177 492.336588,427.300442 491.245815,426.565609 C489.011569,425.057216 486.752464,423.58755 484.469496,422.154627 C484.393928,421.980849 484.241796,421.81998 484.168216,421.647195 C484.117505,421.647195 484.142364,421.647195 484.093642,421.647195 C483.120198,420.607506 481.424876,419.747553 480.119328,419.178554 C477.673291,418.113046 474.921996,418.015731 472.353657,417.290828 C471.870416,417.153792 471.390157,416.993916 470.893989,416.922419 C470.42964,416.854894 469.959325,416.864824 469.490998,416.875747 C464.061989,416.993916 458.632979,417.112085 453.20397,417.231247 C451.494726,417.267989 449.666165,417.344451 448.281071,418.347399 C446.887029,419.359283 446.24569,421.106 445.876795,422.786186 C445.508895,424.467364 445.324946,426.225004 444.533464,427.753258 C444.246104,428.305375 443.862295,428.837632 443.305473,429.115677 C442.252484,429.643962 441.00759,429.113691 439.835282,428.987578 C439.424626,428.943885 438.995078,428.94885 438.621213,428.772093 C438.108141,428.53079 437.803878,428.005484 437.464814,427.549689 C436.787679,426.641078 435.854009,425.925113 434.799031,425.50606 C434.057265,425.212127 433.216067,425.036363 432.684103,424.441545 C432.119327,423.810979 432.063645,422.848746 432.333107,422.048374 C432.603563,421.248002 433.148453,420.57275 433.696325,419.929275 C435.468211,417.842946 437.379302,415.874786 439.412695,414.03969 C439.945652,413.559069 440.581025,413.056603 441.29495,413.142002 C442.672089,407.910787 441.008585,402.307191 439.267523,397.185208 C438.942379,396.230919 438.612264,395.269678 438.099192,394.401781 C437.126743,392.757345 435.52091,391.487276 434.882554,389.686935 C434.561387,388.785276 434.503717,387.792258 434.078146,386.934292 C433.381125,385.527186 431.846883,384.754619 430.367328,384.222362 C428.888768,383.690104 427.30481,383.269065 426.135485,382.220439 C425.516021,381.666335 425.048689,380.964272 424.476952,380.360518 C423.566152,379.399277 422.387878,378.693242 421.109177,378.345686 C420.652782,378.221558 420.171529,378.136159 419.779765,377.871023 C419.388002,377.604895 419.114563,377.087533 419.30249,376.653584 C420.48673,376.74097 421.528782,377.438068 422.661317,377.792575 C423.746124,378.132187 424.92937,378.151054 426.023126,377.847191 C426.964751,377.585034 428.061491,377.118316 428.830103,377.722071 C429.96065,378.611814 429.218884,381.03279 430.602983,381.432976 C431.642052,380.222488 432.04873,378.277167 431.755405,376.710186 C431.462079,375.142212 430.672586,373.71326 429.797581,372.380631 C427.499698,368.881238 424.550532,365.859487 422.049807,362.501103 C419.550077,359.142718 417.452053,355.275909 417.269097,351.094314 C417.219381,349.968232 417.358586,348.725968 418.171943,347.94347 C418.711861,347.423129 419.461582,347.194735 420.119824,346.835263 C420.778067,346.475791 421.411451,345.86012 421.373667,345.111385 C421.323951,344.148158 420.264001,343.619873 419.38303,343.222666 C414.851895,341.185988 411.143066,337.386704 409.219049,332.810881 C407.626142,329.021527 404.617317,325.816067 402.100683,322.564929 C401.194854,321.395155 400.276098,320.212471 399.106773,319.30386 C398.081625,318.506468 396.894402,317.946406 395.719111,317.393295 C393.5137,316.355592 391.298346,315.312924 388.958702,314.634693 C387.463238,314.201738 385.918059,313.916742 384.478277,313.325897 C382.509516,312.518574 380.813199,311.171049 379.225263,309.754014 C377.156075,307.908988 375.196262,305.885219 373.840998,303.468215 C371.550076,299.382942 371.166267,294.526095 371.063851,289.845011 C368.179317,287.762654 366.774337,284.115302 365.601035,280.758904 C365.201316,279.617927 364.801598,278.470992 364.576881,277.283343 C364.442647,276.565392 364.371056,275.834531 364.182134,275.129489 C363.895769,274.061003 363.346902,273.082881 362.966076,272.044185 C361.42189,267.830812 362.735393,262.982902 361.219048,258.758607 C360.192906,255.896731 358.702414,253.23048 357.570873,250.409318 C357.122433,249.295153 356.656095,248.149211 355.812908,247.294223 C355.143728,246.614006 354.246848,246.125442 353.803379,245.281377 C353.436474,244.585272 353.435479,243.740215 353.056642,243.051061 C352.117006,241.344064 349.560598,241.491031 348.038288,240.274584 C347.312432,239.695655 346.871946,238.842654 346.451347,238.016463 C345.682735,236.507077 344.915116,234.997691 344.147498,233.487312 C343.400761,232.019632 342.645074,230.538051 341.60004,229.263016 C340.556,227.987982 339.184827,226.918503 337.582971,226.52924 C337.190213,226.43391 336.788506,226.049613 336.389782,225.984074 C336.204837,225.955276 335.905546,225.984074 335.718613,225.984074 C334.460793,226.861901 332.973284,227.558006 331.638901,226.803313 C331.083074,226.488526 330.669435,225.981094 330.229944,225.516362 C328.75039,223.953353 326.886032,222.815356 325.046532,221.697218 C322.595524,220.207692 320.071929,218.690362 317.249043,218.18293 C315.432413,217.856228 313.359247,218.043908 312.057677,219.351711 C311.483952,219.929648 311.112075,220.672424 310.659657,221.348669 C309.766754,222.681298 308.526832,223.779575 307.096994,224.505471 C306.400967,224.857992 305.636332,225.128093 304.857776,225.085393 C303.643706,225.018861 302.612592,224.223454 301.490995,223.757729 C297.946229,222.288063 293.696488,224.176782 290.11891,222.79053 C289.830556,222.679312 289.506407,222.485674 289.500441,222.176845 C289.49348,221.815387 289.913085,221.61877 290.262093,221.522447 C293.396202,220.661501 296.704319,220.442044 299.92394,220.881951 C300.466841,220.956427 301.242414,220.089523 301.489006,219.602945 C302.377932,217.84729 303.680496,216.338897 305.0288,214.90498 C306.530229,213.308209 308.445298,211.656821 310.617896,211.959691 C311.875716,212.134462 313.089785,212.966611 314.317776,212.640901 C314.866642,212.495921 315.328009,212.133469 315.772472,211.779955 C316.903018,210.880282 318.033565,209.981601 319.164111,209.081927 C320.349345,208.138561 321.60816,207.085963 321.964128,205.613318 C322.285294,204.283668 321.760291,202.835849 320.800769,201.860706 C319.841246,200.88457 318.502886,200.343376 317.146628,200.148744 C315.925598,199.97298 314.347605,199.819063 314.022461,198.630421 C313.786806,197.772454 314.432123,196.92541 315.125167,196.368328 C315.819205,195.810252 316.644494,195.32566 316.999468,194.510393 C317.305719,193.80535 317.194355,192.992069 317.359413,192.240355 C317.630863,191.011 318.714677,190.00408 319.962553,189.823351 C321.230317,189.641629 322.345948,188.154089 323.306465,187.307046 C324.232181,186.489792 325.119118,185.607 325.764434,184.554402 C327.976806,180.944784 327.1018,175.812871 330.016164,172.73849 C330.758924,171.954999 331.695578,171.377063 332.445298,170.600524 C334.918182,168.041518 334.841619,164.057533 335.697732,160.604812 C336.547879,157.173938 338.420191,154.096577 340.264663,151.080784 C341.108844,149.701483 341.433988,147.914052 341.307709,146.303378 C341.227168,145.279578 340.971627,144.264714 341.039241,143.240913 C341.11481,142.095964 341.588108,141.018541 342.084276,139.98481 C343.619512,136.784315 345.439125,133.720857 347.514279,130.840114 C348.581189,129.359525 349.744548,127.86702 350.150233,126.087534 C350.824384,123.126356 349.268267,120.170144 348.708463,117.185134 C348.562297,116.398665 348.47778,115.583397 348.119823,114.868425 C347.613712,113.863492 346.637286,113.194198 345.700632,112.56959 C343.282436,110.95693 340.442647,109.269794 337.645613,110.065201 C335.988075,110.536884 334.265905,111.849653 332.740612,111.047295 C332.411491,110.87451 332.135069,110.614339 331.810919,110.432617 C330.852391,109.896388 329.642298,110.131733 328.64002,110.580577 C327.637741,111.02942 326.716997,111.675875 325.659036,111.970801 C323.559024,112.556681 321.370516,111.671903 319.271498,111.083043 C315.886819,110.132726 312.339071,109.944053 308.825129,109.843758 C307.401257,109.803044 305.926675,109.786163 304.622121,110.355162 C303.709332,110.753362 302.862168,111.438543 301.865855,111.430599 C300.788008,111.420669 299.917974,110.609374 299.019105,110.01555 C296.939974,108.641214 294.19365,108.3304 291.860966,109.206241 C290.14874,109.848723 288.058671,110.776201 286.30866,111.306472 C285.322291,111.60537 284.289188,111.766239 283.352535,112.195223 C282.627673,112.527883 281.984345,113.01049 281.344,113.487138 C278.669268,115.476152 275.699222,117.48999 272.364259,117.456228 C271.873063,117.452256 271.351043,117.389696 270.969223,117.08186 C270.485981,116.691605 270.349759,115.991527 270.473055,115.383801 C270.597345,114.776074 270.93641,114.237859 271.268514,113.713546 C273.878615,109.604441 276.488716,105.494342 279.098816,101.384244 C279.445836,100.836099 279.802798,100.139 279.479643,99.5749667 C279.137595,98.9751843 278.234749,98.9741913 277.631194,99.3128101 C277.029628,99.651429 276.591131,100.222414 276.020389,100.61267 C274.369811,101.739744 271.731869,100.796378 271.173059,98.8778686 C270.704732,97.2681877 271.584709,95.5393447 272.801762,94.3854587 C274.016826,93.2305796 275.550074,92.4719145 276.891417,91.464995 C279.604927,89.4273237 282.084772,87.0867821 284.707799,84.9339207 C285.638486,84.1702905 286.570168,83.4056672 287.425286,82.5576305 C288.818334,81.1733645 289.995614,79.5726207 290.901443,77.8308685 C291.156985,77.339325 291.394628,76.8289141 291.761534,76.4138329 C292.023041,76.1189068 292.341225,75.8795896 292.666369,75.6551678 C294.314958,74.518163 296.178321,73.7217632 297.844808,72.6095839 C301.818127,69.9572349 304.505785,65.4687971 304.965163,60.7182026 C305.048686,59.8612288 304.790162,58.5395228 303.994703,58.203883 C303.525382,58.0062726 302.915861,58.0003145 302.640433,57.5723241 C302.288443,57.0231855 302.802508,56.3429687 303.264869,55.8832018 C304.436183,54.7154135 305.538888,53.3708682 305.88193,51.7552292 C306.224972,50.1385971 305.57369,48.2111507 304.050385,47.5656895 C303.798821,47.4594366 303.523393,47.3839673 303.328506,47.194301 C302.625519,46.5091192 303.498535,45.0086701 302.691144,44.4496014 C302.016992,43.9828833 301.238437,44.8140387 300.648802,45.3820446 C299.390982,46.5974977 297.497789,46.8040453 295.753745,46.9460467 C295.255588,46.9857674 294.717659,47.017544 294.295071,46.7514154 C294.049473,46.5974977 293.867512,46.3552015 293.619925,46.2032698 C292.876171,45.7444959 291.888807,46.2807252 291.365793,46.9808023 C290.841784,47.6808795 290.542492,48.5517556 289.901153,49.1445869 C289.25882,49.7384112 288.036796,49.8575732 287.639066,49.0800408 C287.537645,48.8814373 287.4929,48.634176 287.307956,48.5110419 C287.146876,48.404789 286.937073,48.4286215 286.748152,48.4564259 C285.962636,48.5726089 285.178114,48.688792 284.392598,48.804975 C283.653815,48.9142069 282.895146,49.0293969 282.247841,49.4007853 C281.663178,49.7364251 281.211755,50.2567662 280.70465,50.7006449 C278.677223,52.4771527 275.616693,52.9796194 273.126906,51.9429094 C271.947638,51.4533519 270.608283,50.650001 269.512538,51.3034063 C269.243076,51.4642751 269.028302,51.6996202 268.794636,51.9091468 C267.673038,52.9200384 266.151722,53.3380986 264.686089,53.7025359 C262.985795,54.1245683 261.250699,54.5217752 259.501683,54.4324036 C257.751673,54.3430321 255.957912,53.707501 254.825377,52.3738789 C253.722671,52.4294879 252.334595,52.381823 251.23189,52.437432 C251.051917,52.4463691 250.866973,52.4562993 250.700921,52.5268035 C250.300208,52.6976025 250.120235,53.1563765 249.805035,53.4562677 C249.083155,54.1434356 247.852182,53.8147469 247.094507,53.1672997 C246.335838,52.5198524 245.814812,51.6201788 245.010404,51.0303266 C244.36807,50.5596364 243.589515,50.3203193 242.826868,50.0889463 C241.535241,49.6967044 240.243614,49.3044626 238.951987,48.9122208 C238.170448,48.6748897 237.294449,48.4435167 236.568592,48.8178842 C235.557365,49.3392182 235.410205,50.6797915 235.117873,51.7790616 C234.821565,52.8952129 234.246846,53.936888 233.459341,54.7829387 C232.609194,55.6985006 231.431914,56.5713627 231.453789,57.8195854 C231.471687,58.8453722 232.340726,59.7202203 232.324817,60.7460071 C232.311891,61.5851067 231.712313,62.293128 231.093844,62.8611338 C230.473386,63.4331117 229.799234,63.9474947 229.083321,64.3943524 C228.481754,66.2264692 228.495675,68.1002927 229.578494,69.6960714 C229.891706,70.1588174 230.285458,70.6344727 230.256623,71.1925483 C230.210884,72.0862638 229.171815,72.5301425 228.307748,72.7694597 C227.448652,73.0077838 226.529896,73.2441219 225.680744,72.9750143 C224.831591,72.7059066 224.137553,71.9522065 223.246638,71.9353252 C222.581435,71.922416 221.960977,72.3553715 221.61893,72.9253634 C221.275888,73.4953553 221.175461,74.1815302 221.186399,74.8458587 C221.199325,75.5509009 221.339525,76.2787826 221.753163,76.8497675 C222.248337,77.5359424 223.082575,77.9311632 223.529026,78.6491147 C224.284713,79.8625817 223.722919,81.6371035 224.651618,82.7234644 C224.81071,82.9091586 225.010569,83.0690344 225.11199,83.2914702 C225.212417,83.5139061 225.162701,83.8356437 224.934006,83.9210431 C224.833579,83.9587778 224.723209,83.9428895 224.617811,83.9260082 C223.812409,83.796916 223.019932,83.5873894 222.256291,83.2994144 C221.717368,83.0968388 221.14066,82.8515636 220.583838,82.9995232 C219.877868,83.1881964 219.462241,84.082905 219.775453,84.7422684 C219.219626,85.6608093 219.045619,86.9517317 219.092352,88.0241903 C219.14008,89.1522579 219.33795,90.4580755 220.317359,91.0211163 C221.321627,91.6000454 222.691805,91.0975786 223.69309,91.6804798 C224.237979,91.9972522 224.578038,92.5861115 225.110002,92.9217513 C225.488839,93.1610684 225.9512,93.2643422 226.285293,93.5622474 C226.619385,93.8601526 226.719812,94.4946906 226.323077,94.7012382 C226.173928,94.7786935 225.996939,94.7727354 225.829892,94.7588332 C224.647641,94.6615175 223.495219,94.2811919 222.308991,94.2762268 C221.122762,94.2722547 219.808265,94.7767075 219.372752,95.8779636 C219.202722,96.3099261 219.180847,96.7974975 218.946186,97.1976835 C218.710532,97.5958834 218.107971,97.8461237 217.787799,97.5114769 C217.646605,97.3655034 217.604843,97.1549837 217.556121,96.9573733 C217.318478,95.9961326 216.732821,95.0905009 215.857816,94.6257688 C214.982811,94.1590507 213.811497,94.2126737 213.079674,94.8799813 C212.207652,95.673402 212.053532,97.1440605 211.006509,97.6842619 C209.940593,98.2343934 208.387459,97.5541766 207.573108,98.4329969 C207.329498,98.6961465 207.214157,99.0506536 207.107764,99.3942376 C206.453499,101.495462 205.842984,103.610589 205.275225,105.737632 C205.615283,106.206336 206.027928,106.658159 206.483328,107.016638 C206.938729,107.374124 207.340436,107.931207 207.200236,108.493254 C207.133616,108.756404 206.958615,108.974868 206.805489,109.19929 C205.878779,110.555751 205.695824,112.388861 206.336168,113.901226 C206.583755,114.486113 206.944695,115.024329 207.119696,115.633048 C207.295691,116.243754 207.240009,116.981566 206.761739,117.399626 C206.520118,116.929929 205.81912,116.873327 205.374657,117.159316 C204.9292,117.444312 204.688573,117.95373 204.498658,118.447259 C203.746949,120.400524 203.448651,122.526574 203.63459,124.61191 C202.759585,126.04682 204.884455,128.386368 204.589141,130.040735 C204.511584,130.473691 204.272946,130.859974 204.153627,131.283993 C203.81158,132.496467 204.649795,133.908537 205.878779,134.190554 C206.399805,134.310709 206.951655,134.250135 207.467709,134.390151 C207.983763,134.529173 208.48888,134.989933 208.392431,135.514246 C208.333766,135.830026 208.078224,136.067357 207.836603,136.279862 C206.963587,137.048458 206.037871,137.842872 204.902353,138.100063 C203.766835,138.357254 202.370804,137.86869 202.024779,136.757504 C201.908443,136.383136 201.920375,135.983943 201.86867,135.595674 C201.629038,133.803277 200.080876,132.466676 199.501185,130.754715 C198.224473,126.9882 201.915404,122.838381 200.588975,119.087755 C200.411986,118.587275 200.090819,118.071899 199.574765,117.948764 C198.980159,118.017283 198.614248,118.646856 198.507855,119.234722 C198.400468,119.821595 198.453167,120.443224 198.240382,121.000306 C197.996772,121.637823 197.445917,122.096597 196.996482,122.609987 C195.661105,124.136255 195.179852,126.206696 194.743344,128.186772 C194.326722,128.066617 193.938936,127.624724 193.891208,127.194748 C193.457683,123.273323 195.841078,119.210889 194.512661,115.496012 C194.084107,114.299426 193.302568,113.267681 192.531967,112.255797 C191.802133,111.297535 191.071305,110.33828 190.341471,109.380019 C189.776695,108.638235 189.09956,107.832898 188.168873,107.756436 C186.910059,107.654155 186.01119,108.90635 185.387749,110.004627 C184.505783,111.557706 183.591999,113.271653 183.882342,115.033266 C183.995695,115.720434 184.28902,116.369867 184.369561,117.061007 C184.450101,117.752147 184.248253,118.553512 183.632767,118.881208 C182.632477,119.414458 181.542697,118.37179 180.886443,117.446298 C179.664419,115.725399 178.442395,114.003507 177.220371,112.281615 C176.489542,112.859551 175.886982,113.75426 175.998346,114.678759 C176.109711,115.602265 176.497497,116.46619 176.784857,117.350968 C177.186564,118.586281 177.39736,119.882169 177.408298,121.179049 C177.410286,121.438227 177.39736,121.716272 177.238268,121.91984 C176.815681,122.457063 175.952607,121.959561 175.559849,121.400492 C175.167091,120.841424 174.655014,120.124465 173.993789,120.299236 C173.767083,120.35981 173.583133,120.521672 173.416087,120.68552 C171.350875,122.70631 170.490785,125.873042 171.249454,128.658455 C172.008124,131.444862 174.354729,133.740717 177.160711,134.438808 C177.57435,134.542082 178.042677,134.604642 178.402622,134.375255 C179.362145,133.761571 178.452338,132.082379 179.151348,131.183698 C179.738993,130.426026 181.065422,130.858981 181.515851,131.704039 C181.968268,132.55009 181.846961,133.568925 181.820114,134.526194 C181.702784,138.648209 183.665579,142.777174 186.938894,145.291494 C187.902394,146.032285 189.034929,146.719453 189.443597,147.863408 C190.323573,148.438365 191.662928,148.108684 192.17401,147.190143 C192.420603,146.747257 192.48424,146.221951 192.7189,145.772114 C192.952566,145.321284 193.483535,144.940959 193.948879,145.143534 C194.838799,145.531804 194.102005,147.098785 194.791071,147.781981 C196.181137,148.037186 196.515229,145.087925 197.901317,145.361998 C198.440241,145.468251 198.742515,146.094845 198.685839,146.641997 C198.628168,147.188157 198.310979,147.666791 198.005721,148.124572 C197.38228,149.06198 196.760827,150.043081 196.573895,151.153274 C196.387956,152.263468 196.744918,153.540488 197.710407,154.12041 C199.232717,155.034979 201.133865,153.811582 202.363844,152.531582 C203.630613,151.213848 204.761159,149.766029 205.732614,148.216922 C205.918552,147.92001 206.149236,147.586357 206.498243,147.552594 C207.119696,147.491027 207.358334,148.419498 207.058048,148.966651 C206.757762,149.513803 206.18702,149.890157 205.952359,150.468093 C205.70179,151.085749 205.889717,151.782847 205.867842,152.449162 C205.828069,153.65965 205.010734,154.810557 203.879194,155.247484 C203.375071,158.057723 199.811414,160.774618 200.397071,163.567976 C200.495509,164.035687 200.719232,164.503398 201.120939,164.763569 C202.024779,165.348456 203.719107,164.945291 203.900074,166.005833 C204.043257,166.842947 202.917682,167.253063 202.396656,167.924342 C202.060575,168.358291 201.97904,168.931262 201.747363,169.428763 C201.515685,169.925272 200.987699,170.388018 200.467668,170.212254 C200.08187,170.083162 199.874056,169.65815 199.519083,169.459547 C199.16908,169.26293 198.738538,169.316553 198.341803,169.374148 C197.089949,169.558849 195.838095,169.742557 194.587235,169.926265 C192.96947,170.163596 191.273153,170.433697 189.974566,171.425721 C188.675978,172.418738 187.96802,174.386898 188.896718,175.731444 C189.300414,176.316331 190.001412,176.870435 189.825417,177.558595 C189.770729,177.775073 189.631524,177.958781 189.494307,178.135539 C188.420437,179.526756 186.98165,181.072883 185.24556,180.789874 C183.567141,182.279399 183.135605,185.548412 184.90053,186.934664 C185.400675,187.327899 186.074827,187.745959 186.003235,188.377518 C185.975394,188.617828 185.836189,188.828348 185.748688,189.054756 C185.377805,190.020962 186.060906,191.134134 186.983639,191.605817 C187.906371,192.076507 188.990185,192.071542 190.027265,192.054661 C189.454534,193.513403 188.882798,194.972146 188.310067,196.431881 C188.156941,196.821144 187.997849,197.22133 187.709495,197.5242 C186.941877,198.33053 185.617437,198.149801 184.56246,197.794301 C183.506487,197.437807 182.357049,196.966124 181.322952,197.379219 C179.997518,197.908498 179.597799,199.715789 180.137717,201.034516 C180.676641,202.354236 181.867841,203.277742 183.033189,204.100953 C183.816717,204.655057 184.719563,205.218097 185.665165,205.060208 C186.414885,204.934094 187.015457,204.378005 187.730376,204.121806 C189.04189,203.651116 190.485648,204.245933 191.877702,204.179401 C194.053283,204.075134 195.781418,202.41481 197.68356,201.35526 C199.617521,200.27883 202.407594,202.368138 204.299793,201.219217 C204.912296,200.846835 205.317981,200.219249 205.830057,199.716782 C206.74583,198.820087 208.046406,198.279886 208.659904,197.15579 C209.199822,196.166745 209.073543,194.959236 208.898542,193.846064 C208.721552,192.731899 208.516721,191.556166 208.929366,190.505554 C209.341016,189.456928 210.645569,188.670458 211.624978,189.23052 C211.387335,189.927618 211.147703,190.683304 211.366454,191.387353 C211.584211,192.091403 212.481091,192.618695 213.084646,192.195669 C213.200982,192.113249 213.298426,192.002031 213.424705,191.933513 C213.934793,191.657454 214.551274,192.314831 214.443887,192.884823 C214.3365,193.454815 213.80752,193.842092 213.287488,194.101269 C212.768451,194.360447 212.194726,194.569974 211.821854,195.014845 C210.82057,196.213417 211.928247,198.035604 211.645859,199.570808 C211.315743,201.369163 209.199822,202.306571 208.538596,204.011581 C208.200526,204.88643 208.276095,205.896328 207.835609,206.724504 C207.391146,207.562611 206.499238,208.065078 205.928496,208.82275 C205.324941,209.623122 205.122099,210.644936 204.751216,211.575394 C203.352202,215.085709 199.710987,217.078695 196.337245,218.788671 C196.095625,221.049771 194.748316,223.816317 193.633678,225.799372 C193.131545,226.692095 192.159096,227.659294 191.24034,227.203499 C191.221448,226.18367 190.988776,224.88679 189.990475,224.671305 C189.373,224.53824 188.772428,224.922538 188.263334,225.29492 C186.751961,226.398162 185.290305,227.570915 183.886319,228.807222 C183.885325,228.190558 183.189298,227.76356 182.572817,227.812218 C181.95733,227.860876 181.423378,228.236237 180.923233,228.597695 C179.620669,229.542054 178.279326,230.526134 177.465969,231.914372 C176.877329,232.918313 176.60389,234.070213 176.337411,235.203245 C175.962551,236.802996 175.585702,238.40374 175.209847,240.004484 C175.05871,240.649945 174.906578,241.320232 175.038823,241.970658 C175.172063,242.620091 175.675191,243.244699 176.338405,243.293357 C176.762981,243.32414 177.167671,243.121565 177.532588,242.902108 C178.861005,242.101736 180.006467,241.001473 180.858602,239.707572 C181.790284,240.893234 183.250946,242.649882 183.053076,244.144373 C182.918842,245.168173 182.245684,246.029119 181.835029,246.976458 C181.424373,247.924789 181.363719,249.210746 182.202929,249.815494 C182.871114,250.297107 183.824671,250.114392 184.535613,249.697325 C185.246555,249.280258 185.824257,248.664587 186.531221,248.242555 C187.860633,247.447148 189.507233,247.407427 190.937071,246.810624 C193.657542,245.675605 195.228574,242.331123 194.362518,239.516912 C194.045328,238.48616 193.523308,237.176371 194.356552,236.490196 C194.907407,236.035394 195.744628,236.196263 196.395911,235.90233 C197.599043,235.361135 197.618929,233.691873 198.24237,232.531036 C198.516804,232.020625 198.923482,231.595614 199.310274,231.163651 C200.889261,229.405018 202.204752,227.4309 203.514277,225.464726 C205.477072,222.518443 207.489584,219.448034 208.024531,215.949634 C208.176662,214.952645 208.208481,213.923879 208.558483,212.977534 C208.908485,212.031188 209.675109,211.150382 210.679376,211.035192 C210.522273,213.942747 210.334346,216.963505 208.920417,219.509601 C208.196549,220.81244 207.162452,221.967319 206.737875,223.395278 C205.88574,226.261125 207.705353,229.342458 207.144554,232.27881 C206.853217,233.803091 206.627505,236.110863 207.545267,237.364051 C207.881348,237.823818 208.310896,238.239892 208.473965,238.785059 C208.808058,239.896245 207.93703,240.961752 207.277793,241.917035 C204.172519,246.41441 205.063434,252.506571 203.335298,257.690121 C202.74467,259.46067 201.843812,261.132911 201.465969,262.960063 C200.927045,265.563754 201.491821,268.254831 202.054609,270.853557 C203.394958,270.398755 204.717409,270.502029 206.057758,270.046234 C208.264163,269.297499 210.687331,268.366049 211.718445,266.277734 C212.734644,264.218216 212.03464,261.757519 212.278249,259.473579 C212.587484,256.584892 214.409086,254.047733 214.871446,251.1799 C215.348722,248.219715 214.467751,244.751106 216.460376,242.50788 C217.796748,241.001473 220.186109,240.44439 220.943784,238.579504 C221.728305,236.648086 220.296479,234.608428 219.185819,232.842844 C217.530269,230.209362 216.463359,226.825159 217.800725,224.016906 C218.026437,223.541251 218.532548,223.029847 218.996897,223.278102 C219.252438,223.414145 219.350876,223.725952 219.402581,224.009955 C219.69889,225.646448 219.18383,227.308759 219.094341,228.969083 C219.005846,230.629408 219.560679,232.572743 221.115802,233.166567 C221.976886,233.495256 222.936409,233.326443 223.857153,233.369143 C224.777897,233.411842 225.828898,233.812028 226.065547,234.701772 C226.160008,235.056279 226.10532,235.431639 226.111286,235.799056 C226.151059,238.218046 228.635875,239.731404 230.705063,240.989557 C236.035635,244.231758 240.535945,248.82347 243.666078,254.216546 C244.616651,255.854032 245.305718,258.250182 243.787385,259.383215 C243.327013,259.726799 242.747322,259.862842 242.230274,260.114076 C241.073875,260.677116 240.295319,261.782345 239.568468,262.842887 C238.310648,264.67699 237.037913,266.53989 236.309074,268.641115 C235.960066,269.652006 235.739326,270.707583 235.302818,271.683719 C234.645569,273.155371 233.534909,274.366852 232.57837,275.664725 C231.415011,277.244616 230.464437,278.98041 229.760455,280.811534 C228.897382,283.053767 228.187435,285.702143 226.02478,286.755735 C225.037416,287.236355 223.776613,287.363461 223.165104,288.274058 C222.751465,288.889729 222.770357,289.689108 222.835982,290.425926 C223.173058,294.197406 224.359287,297.89143 226.281315,301.154485 C227.495385,303.215988 230.530062,304.904118 230.846257,307.27445 C230.964582,308.1632 230.81941,309.066846 230.890007,309.960561 C231.006343,311.434199 231.738166,312.849248 232.874678,313.796587 C233.773547,314.546315 235.140743,314.982249 236.100266,314.308984 C237.365046,313.420233 236.965328,311.479878 236.429387,310.030073 C235.932225,308.684534 235.434068,307.339989 234.936906,305.99445 C234.589887,305.057042 234.238891,304.097788 234.216021,303.098812 C234.194146,302.098844 234.559063,301.035322 235.384352,300.470296 C235.829809,300.165439 236.371716,300.029396 236.909645,299.980738 C238.626843,299.826821 240.327137,300.526898 241.730129,301.528852 C243.132126,302.529813 244.29449,303.823715 245.50856,305.047112 C247.491242,307.04407 249.639977,308.876186 251.926922,310.517644 C252.480761,310.916837 253.084315,311.318016 253.766422,311.352771 C254.848246,311.407387 255.782911,310.482888 256.111038,309.452136 C256.43817,308.420392 256.298965,307.306226 256.156777,306.233768 C256.899537,305.233799 255.782911,303.5129 255.065009,302.494065 C254.347107,301.476222 253.475085,300.337231 253.750512,299.123764 C256.565444,300.078054 259.216312,301.511971 261.554962,303.343095 C262.74318,304.274545 263.864777,305.315227 265.202143,306.018283 C266.539509,306.721339 268.172189,307.050028 269.564243,306.462162 C270.40743,306.106661 271.088542,305.448291 271.903887,305.031224 C273.368527,304.281496 275.252771,304.303342 276.411158,303.134561 C277.429346,302.106788 277.60733,300.395819 278.774667,299.540832 C279.830639,298.768264 281.279369,298.983749 282.582928,299.099932 C283.886487,299.217108 285.449564,299.065176 286.106813,297.93413 C287.028551,296.342323 285.580815,293.741611 287.121023,292.732705 C287.560514,292.443737 288.116342,292.416926 288.642339,292.400045 C289.390071,292.374226 290.137802,292.349401 290.885534,292.324575 C291.699886,292.296771 292.541084,292.273931 293.292793,292.583753 C294.045496,292.893574 294.684846,293.631386 294.609278,294.439702 C294.504874,295.552874 293.263957,296.107971 292.324321,296.715698 C290.857693,297.666015 289.81763,299.250871 289.53027,300.974748 C289.315496,302.255741 289.495469,303.609223 289.043052,304.826662 C288.612509,305.982534 287.66989,306.860362 286.969886,307.877211 C284.925556,310.842361 285.032943,314.819395 283.342592,318.000029 C282.405938,319.762634 280.883628,321.718878 281.764599,323.510281 C282.295568,324.591677 283.517593,325.102088 284.512911,325.780319 C285.671299,326.569767 286.588065,327.663079 287.4054,328.801077 C289.181263,331.275676 290.558402,334.035271 291.466219,336.940839 C291.072467,338.058977 291.427441,339.570349 292.138382,340.519673 C292.850319,341.468998 293.839671,342.165103 294.794222,342.869152 C295.347066,343.278275 295.911842,343.715203 296.230026,344.323922 C296.767955,345.354674 296.480596,346.595946 296.456732,347.757776 C296.424914,349.205595 296.838552,350.660365 297.627051,351.875818 C298.07052,352.558021 298.656177,353.184615 299.414846,353.479541 C300.17451,353.772481 301.128067,353.663249 301.672956,353.058502 C302.279494,352.384243 302.226795,351.349519 302.628502,350.535245 C303.300665,349.16786 305.141159,348.61475 305.66119,347.182819 C305.843151,346.678366 305.895851,346.033898 306.377103,345.79756 C307.33762,345.325877 308.099273,347.148063 309.160217,347.020957 C309.966613,346.924635 310.230109,345.802525 310.976847,345.48476 C311.917477,345.083581 312.864074,346.30102 312.706971,347.309925 C312.549867,348.318831 311.781255,349.101328 311.202558,349.943407 C310.314627,351.234329 309.829397,352.798331 309.829397,354.365313 C309.830391,355.645312 310.078972,357.127887 309.171154,358.032525 C308.794305,358.407886 308.279245,358.602517 307.817879,358.865667 C306.223977,359.77527 305.260477,361.531918 304.886612,363.327293 C304.51374,365.122668 304.654934,366.978617 304.796128,368.806762 C304.886612,369.969585 304.990021,371.173122 305.556786,372.191958 C306.124545,373.210794 307.295859,373.993291 308.43436,373.730142 C307.236199,376.035928 305.658207,378.627702 304.394421,380.89774 C303.132624,383.16877 302.480347,386.063415 303.763025,388.321537 C304.258199,389.193406 305.041726,390.011652 304.986044,391.010627 C304.912464,392.31148 303.502512,393.057236 302.273528,393.49317 C301.045538,393.930098 299.611722,394.516971 299.330329,395.788033 C298.978338,397.385798 300.675649,398.587349 301.608325,399.931894 C302.156198,400.721343 302.465432,401.672653 302.485319,402.632901 C300.520535,402.517711 299.411863,400.389675 297.838842,399.208978 C295.105446,397.158397 291.174882,398.156379 288.154126,399.755137 C287.011647,400.359884 285.874141,401.051024 284.596434,401.258565 C280.933344,401.853382 277.705768,398.371864 273.995945,398.372857 C273.44509,398.37385 272.840541,398.480103 272.485567,398.902135 C271.709994,399.823655 272.732159,401.188061 272.641676,402.389612 C271.183002,403.008261 269.723335,403.627904 268.263667,404.247547 C267.754573,404.463032 267.05258,404.628866 266.74434,404.170092 C266.554424,403.891054 266.631981,403.519665 266.682692,403.186011 C266.892494,401.822599 266.359536,400.194051 265.055977,399.740242 C264.079551,399.40063 262.976846,399.809753 261.980533,399.533694 C259.339608,398.803826 259.541456,394.251836 256.93235,393.41075 C254.275516,392.555762 250.749642,392.504125 247.981444,392.86459 C247.298343,392.953962 246.572487,393.096956 246.084274,393.582542 C244.998472,394.662945 245.75217,396.628126 244.974608,397.947846 C244.068779,399.485036 241.676435,399.327147 240.431541,400.60516 C239.149858,401.919915 239.972164,404.550417 241.773879,404.905917 C242.340644,405.017135 243.014795,404.972449 243.388661,405.412356 C243.731703,405.815521 243.649174,406.458003 243.980284,406.871098 C244.3104,407.283201 244.910971,407.316963 245.415094,407.476839 C247.882012,408.258343 248.075905,412.10132 250.446374,413.139023 C251.580897,413.635532 253.137015,413.450831 253.813155,414.487541 C254.359039,415.321675 253.950372,416.434847 253.464147,417.305723 C251.697233,420.478413 248.999632,423.12679 245.792937,424.837759 C244.305428,425.63118 242.707549,426.231955 241.322456,427.192203 C238.448859,429.189161 236.746576,432.756078 237.005101,436.243555 C238.508519,437.266363 240.488218,437.318 241.829561,436.088644 C242.704566,435.287279 243.687953,433.986427 244.745914,434.525635 C245.689527,435.006255 245.593078,436.606999 246.564532,437.029032 C247.185985,437.299132 247.923773,436.891995 248.304599,436.331933 C248.68642,435.770879 248.825625,435.08669 249.072218,434.455131 C250.139127,431.732278 253.041559,430.273535 255.702371,429.057089 C256.455074,428.713505 257.224681,428.364956 258.046987,428.277571 C259.674695,428.1028 261.361069,429.094824 262.000419,430.599245 C262.656673,432.14438 262.244029,433.928832 262.570167,435.574261 C262.971874,437.609947 264.497167,439.461924 264.193898,441.51449 C263.991056,442.890812 262.998721,444.006964 262.488633,445.300865 C261.035925,448.975029 263.670884,452.988804 263.583383,456.939027 C263.52969,459.383835 262.431956,461.669761 261.356097,463.867308 C260.445297,465.729215 259.514609,467.61992 258.110624,469.146188 C256.706638,470.672455 254.736882,471.80946 252.663716,471.732005 C251.370101,475.123158 247.241667,477.465686 243.613378,477.664289 C241.692344,477.768556 239.562502,477.339573 237.996442,478.454731 C237.343171,478.919463 236.883793,479.600673 236.418449,480.252092 C234.694291,482.670089 232.144844,485.10894 229.207611,484.656124 C228.226213,484.504192 227.321378,484.034495 226.347935,483.835892 C225.375486,483.638281 224.209144,483.800143 223.657294,484.624347 C222.961267,485.663043 223.594652,487.145618 223.064677,488.276665 C222.363678,489.773142 220.285541,489.733421 218.670759,490.087928 C215.614206,490.759208 213.301409,493.880261 213.551978,496.994363 C214.977839,497.031104 216.723872,496.892082 218.145756,497.0033 C219.568633,497.114518 221.118785,498.222725 220.896056,499.629831 C220.716083,500.767828 219.527866,501.415275 218.475871,501.888945 C217.170324,502.478797 215.86577,503.068649 214.560223,503.657508 C214.26292,503.791566 213.943742,503.946476 213.797576,504.238423 C213.448569,504.940487 214.325562,505.597864 215.037499,505.928539 C218.655844,507.608724 221.849613,510.191562 224.248917,513.376168 C225.053325,514.444655 226.137138,515.729619 227.431748,515.388021 C228.234168,515.176508 228.728347,514.400962 229.354771,513.856788 C231.646688,511.86281 235.664752,513.010738 237.798571,510.846953 C238.48366,510.150848 238.854543,509.211454 239.390484,508.395194 C241.100721,505.790509 244.610685,504.613784 247.62647,505.409191 C250.642255,506.205591 253.043548,508.790414 253.880769,511.792306 C254.538017,514.14377 254.50421,517.021534 256.488881,518.446514 C257.790451,519.37995 259.533501,519.323348 261.132375,519.227025 C263.527701,519.084031 266.063228,518.892379 268.020057,517.506127 C269.284838,516.609432 270.359702,515.20332 271.904882,515.099053 C273.762279,514.973933 275.131463,516.806049 275.819536,518.532906 C276.506614,520.259763 277.005764,522.240833 278.539012,523.294424 C279.241999,523.77703 280.090158,524.002445 280.831923,524.422492 C282.279659,525.240738 283.216312,526.727285 284.532798,527.742148 C286.661645,529.384599 289.520327,529.629874 292.204008,529.810603 C295.677182,530.046941 299.607745,530.123404 302.098527,527.694483 C304.122971,525.720365 304.701667,522.48015 307.031369,520.876427 C308.172853,520.09095 309.578827,519.818864 310.940057,519.563658 C313.583964,519.068143 317.431004,518.408779 320.075906,517.913264" id="Fill-4" fill="#EEEFF0"></path>
            <path d="M216.107391,185.943633 C216.693048,186.188908 217.317484,185.718218 217.760952,185.265402 C218.962096,184.039026 220.03,182.683557 220.939806,181.22978 C221.256996,180.722348 221.564242,180.098734 221.320632,179.552574 C220.085682,179.424475 219.044625,180.439338 218.329706,181.453209 C217.783822,182.227762 214.136641,185.119429 216.107391,185.943633" id="Fill-5" fill="#EEEFF0"></path>
            <path d="M242.074165,338.724298 C242.979994,338.084795 244.048892,337.682623 244.884125,336.953749 C245.901318,336.065991 246.469077,334.787978 247.117377,333.603308 C247.87008,332.225001 248.770937,330.927127 249.79708,329.736499 C251.005184,328.335352 252.704484,326.987828 254.517136,327.361202 C254.751797,327.40986 254.987452,327.490294 255.17339,327.642226 C255.788877,328.142707 255.613876,329.096003 255.516432,329.882473 C255.335465,331.333271 255.628791,332.838685 256.341721,334.114712 C256.886611,335.089855 257.694002,336.023291 257.661189,337.13845 C257.602524,339.088736 255.054071,340.226733 254.909894,342.172054 C254.878076,342.583163 254.961599,343.001223 254.889014,343.406374 C254.74782,344.192844 254.054776,344.759857 253.344828,345.127273 C252.635875,345.49469 251.852348,345.743937 251.236861,346.253355 C250.79041,346.622757 250.4593,347.108343 250.116258,347.574068 C248.772926,349.39824 247.052745,351.084384 244.86921,351.693103 C243.730709,352.010869 242.53056,352.016834 241.348308,352.016834 C240.237648,352.01782 238.933095,351.914546 238.339483,350.977138 C237.847293,350.201591 238.080959,349.169846 238.498575,348.3516 C238.915197,347.533354 239.503837,346.787598 239.729549,345.896862 C240.075573,344.535435 239.530684,342.988314 240.183955,341.743071 C240.79447,340.580247 241.000295,339.482963 242.074165,338.724298" id="Fill-6" fill="#EEEFF0"></path>
            <path d="M220.3452,257.329655 C221.035261,258.574899 221.987824,259.749638 223.300332,260.302749 C224.612839,260.855859 226.33302,260.613563 227.167258,259.459677 C227.918967,258.418995 227.929905,256.783496 229.077355,256.207546 C229.276219,256.108244 229.493976,256.051642 229.689858,255.945389 C230.683188,255.402209 230.574807,253.882893 229.937445,252.948463 C229.300083,252.014034 228.305759,251.349706 227.749932,250.364632 C226.663136,248.443144 227.535158,245.896055 226.564698,243.913993 C225.805034,242.360914 223.943659,241.487058 222.229445,241.723397 C220.516224,241.959735 219.020761,243.203985 218.308825,244.778911 C217.450723,246.67458 217.846464,248.808574 218.169619,250.785672 C218.533542,253.009037 219.25045,255.35653 220.3452,257.329655" id="Fill-7" fill="#EEEFF0"></path>
            <path d="M185.774541,221.511524 C186.029088,221.851136 186.362186,222.177839 186.78378,222.232454 C187.143725,222.279126 187.504665,222.112299 187.773132,221.868017 C188.727683,220.998134 188.54075,219.484776 188.865894,218.236553 C189.101549,217.326949 189.649422,216.50771 190.37329,215.908921 C190.643746,215.685492 190.944032,215.485895 191.134942,215.191962 C191.397443,214.78979 191.411364,214.280373 191.416336,213.799752 C191.420313,213.472056 191.419318,213.125493 191.251278,212.845463 C191.039487,212.493935 190.596018,212.327108 190.187351,212.363849 C189.778684,212.400591 189.403824,212.611111 189.08564,212.870288 C188.153958,213.631932 187.637904,214.810644 186.708211,215.573281 C186.301532,215.906935 185.824257,216.153203 185.443431,216.515654 C184.148821,217.742031 184.85678,220.282169 185.774541,221.511524" id="Fill-8" fill="#EEEFF0"></path>
            <path d="M161.181923,190.940496 C161.54684,191.469774 161.963462,192.035794 162.584914,192.201628 C163.078099,192.333699 163.609068,192.178788 164.052537,191.925569 C164.525835,191.655468 164.933508,191.273156 165.232799,190.817361 C165.574847,190.29702 165.774706,189.688301 166.151555,189.191792 C166.699427,188.471855 167.556535,188.063725 168.395744,187.72312 C168.961515,187.493733 169.570041,187.254416 169.915071,186.749963 C170.370472,186.082655 170.184533,185.111485 169.624729,184.528583 C169.064924,183.944689 168.21776,183.707358 167.409375,183.716295 C166.599995,183.725232 165.811496,183.952633 165.033935,184.179041 C163.973985,184.48787 162.914036,184.796698 161.854086,185.104533 C161.598545,185.180003 161.340021,185.254479 161.107349,185.382578 C160.194559,185.883059 159.805778,187.143198 159.789869,188.125292 C159.770977,189.249387 160.564448,190.04678 161.181923,190.940496" id="Fill-9" fill="#EEEFF0"></path>
            <path d="M174.132994,184.034061 C175.31624,184.025124 176.561134,183.682533 177.35361,182.804705 C177.87563,182.225776 178.175916,181.446258 178.800352,180.97954 C179.190127,180.688586 179.682317,180.539633 180.022376,180.19307 C180.394253,179.813738 180.521527,179.263606 180.617976,178.741279 C180.763147,177.954809 180.871529,177.161389 180.944114,176.364989 C180.97295,176.053181 180.989853,175.714563 180.818829,175.451413 C180.650789,175.193228 180.333599,175.067115 180.026353,175.041297 C179.267684,174.975758 178.568674,175.41765 177.93529,175.840676 C177.223354,176.316331 176.510423,176.792979 175.797493,177.269627 C174.406433,178.199092 173.008414,179.369859 172.342217,180.960673 C171.676019,182.553472 172.284546,184.048956 174.132994,184.034061" id="Fill-10" fill="#EEEFF0"></path>
            <path d="M182.150229,155.500704 C182.918842,156.463931 183.726233,157.395381 184.571409,158.292075 C185.002945,158.749856 185.453374,159.205651 186.005224,159.5115 C186.556079,159.815364 187.231225,159.954386 187.824837,159.742873 C188.468165,159.515472 188.920582,158.911718 189.138339,158.265264 C189.355102,157.61881 189.372005,156.925684 189.38692,156.243481 C189.402829,155.534466 189.417744,154.824459 189.433653,154.114452 C189.443597,153.666601 189.450557,153.202862 189.274561,152.791753 C188.912627,151.942723 187.892451,151.577293 186.968724,151.541544 C185.78349,151.495865 184.588312,151.892079 183.641715,152.601094 C182.93674,153.129379 181.434316,154.603016 182.150229,155.500704" id="Fill-11" fill="#EEEFF0"></path>
            <path d="M191.848866,164.499426 C192.506115,164.481552 193.111658,164.077394 193.489501,163.539178 C193.867344,163.001956 194.042345,162.345572 194.119903,161.693159 C194.169619,161.275099 194.184534,160.842144 194.362518,160.460825 C194.539507,160.080499 194.880561,159.716062 194.784111,159.307932 C194.691639,158.923634 194.240216,158.733968 193.844475,158.743898 C191.503836,158.803479 188.396573,164.594756 191.848866,164.499426" id="Fill-12" fill="#EEEFF0"></path>
            <path d="M159.015291,87.4402962 C158.841284,87.2526159 158.662306,87.0540125 158.597675,86.8067512 C158.447532,86.2278222 158.983472,85.6935789 159.529356,85.4492967 C160.07524,85.2040214 160.705642,85.0838663 161.122264,84.6548829 C161.543857,84.2189483 161.640306,83.5705081 161.683062,82.9657606 C161.807353,81.1713784 161.635335,79.3650801 161.782495,77.571691 C161.929655,75.7792949 162.445709,73.9283108 163.712478,72.6493046 C164.979247,71.3702984 167.13693,70.8598876 168.631399,71.863828 C168.842196,72.0048364 169.064924,72.1806005 169.317483,72.153789 C169.658536,72.1180404 169.842486,71.747645 169.977714,71.4328585 C171.329995,68.2949241 174.164813,65.8332344 177.464974,64.9305817 C178.38373,64.6793484 179.333309,64.543305 180.231184,64.2275255 C181.995115,63.6078828 183.443845,62.3427788 184.844848,61.1064724 C186.553096,59.5990722 188.26234,58.0916721 189.970588,56.5842719 C190.419028,56.1890511 190.886361,55.782907 191.460086,55.6160801 C192.877992,55.204971 194.225301,56.3687872 195.245478,57.4352877 C196.055852,58.2823314 196.908982,59.2197396 197.031284,60.3845489 C197.207279,62.0687061 195.78639,63.7141356 196.26466,65.3387118 C196.494349,66.1142582 197.136682,66.7478032 197.230148,67.5521472 C197.38924,68.9205249 195.960397,69.8887167 194.709537,70.4666528 C193.457683,71.0445888 191.985089,71.8479397 191.930401,73.2232686 C192.737792,73.1070856 193.33737,72.4477221 194.004561,71.978025 C194.670758,71.5073348 195.692923,71.2551084 196.230853,71.8687931 C196.419774,72.0852708 196.508269,72.3702668 196.561963,72.6522837 C197.052164,75.1765335 194.816924,77.858673 192.242619,77.8358336 C191.452131,77.8288825 190.650706,77.6084326 189.881099,77.7921408 C188.448278,78.1327457 187.678671,79.7672521 187.679666,81.2389036 C187.68066,82.7105551 188.23251,84.1196466 188.486062,85.5684587 C188.739615,87.0182639 188.620296,88.6895119 187.543443,89.6934523 C187.015457,90.1859888 186.31943,90.4570825 185.756643,90.9089054 C184.083195,92.2534507 183.579073,95.1361797 181.456191,95.4678475 C180.763147,95.5770793 180.059166,95.3536505 179.357173,95.3695387 C178.65518,95.385427 177.847789,95.7955431 177.812988,96.4966133 C177.787135,97.0358217 178.228615,97.4816864 178.358872,98.0059995 C178.507026,98.6047889 178.183871,99.2850057 177.627049,99.5501413 C177.069233,99.8152769 176.337411,99.6355407 175.965534,99.1430042 C175.644367,98.7169998 175.264535,98.0000414 174.820072,98.2949675 C174.751464,99.9801177 173.57319,101.421979 172.258693,102.480535 C170.944197,103.540084 169.432824,104.362303 168.256539,105.573784 C167.825997,106.015676 167.426278,106.520129 166.863491,106.772356 C165.87215,107.214248 164.555665,106.58964 164.274271,105.543 C163.486766,105.199416 162.710199,106.529066 161.906785,106.225203 C161.57667,106.101076 161.405646,105.744583 161.275389,105.416887 C160.554505,103.613568 160.050382,101.722863 159.776943,99.7993886 C159.732199,99.4846021 159.694414,99.1559134 159.797824,98.8550292 C160.167712,97.7706544 161.752665,97.979188 162.81858,98.4012203 C162.152383,97.3605383 161.793432,96.1262179 161.798404,94.8909044 C161.799398,94.5651948 161.835194,94.2156527 162.045991,93.9673984 C162.366163,93.5890589 162.940882,93.597003 163.435061,93.6357307 C164.711774,93.7370184 165.987491,93.8383062 167.263209,93.9395939 C166.938065,93.9137755 165.778683,92.677469 165.405812,92.4639703 C164.659074,92.0359799 163.695574,91.9694478 162.990599,91.5573456 C161.482209,90.6745533 160.20848,88.7322116 159.015291,87.4402962" id="Fill-13" fill="#EEEFF0"></path>
            <path d="M140.183787,167.452659 C140.502965,166.732722 140.307083,165.857874 140.659074,165.153824 C140.901689,164.669232 141.365044,164.342529 141.772717,163.985043 C143.82699,162.184703 144.671172,159.325806 146.640928,157.432122 C147.479143,156.625792 148.491365,156.025017 149.368359,155.261387 C151.10942,153.746042 152.239967,151.666664 153.332729,149.633958 C153.860715,148.65385 154.393672,147.657854 154.627339,146.5705 C155.281604,143.536832 153.591253,140.021551 155.311434,137.436727 C155.776777,136.73665 156.477776,136.15077 156.657748,135.330538 C157.021671,133.680143 155.101631,132.045637 155.723084,130.473691 C156.185444,129.303916 157.912585,128.745841 157.866847,127.487688 C157.849943,127.04083 157.592413,126.643623 157.438293,126.223577 C156.761158,124.374579 158.108467,122.466993 159.242991,120.857312 C160.353651,119.280401 161.329083,117.60816 162.155366,115.866407 C162.630653,114.864453 163.065173,113.789015 162.977672,112.682794 C162.783779,110.247916 160.248253,108.713704 159.248957,106.483388 C158.845261,105.578749 158.705062,104.580767 158.361026,103.652295 C158.018978,102.722831 157.39156,101.807269 156.439991,101.529225 C155.489418,101.25118 154.26441,101.953243 154.340973,102.940302 C154.39765,103.672156 155.063847,104.176609 155.539134,104.737663 C156.013426,105.297725 156.25107,106.289749 155.619674,106.666103 C154.754612,105.576763 152.76497,105.750541 152.10275,106.972945 C151.913828,107.320501 151.818373,107.727638 151.539962,108.007669 C150.993084,108.559787 150.085266,108.353239 149.309693,108.305574 C147.652155,108.203293 145.972742,109.104953 145.14447,110.541849 C144.792479,111.150569 144.58566,111.860576 144.654268,112.560653 C144.856116,114.629108 147.162948,115.737315 148.311392,117.471123 C149.414097,119.136413 149.376313,121.311121 148.973612,123.267365 C148.569916,125.222616 147.843065,127.120272 147.692922,129.111271 C147.60045,130.343605 147.731701,131.584877 147.635252,132.817211 C147.479143,134.823106 146.726439,136.740622 146.497745,138.739566 C146.14476,141.834801 147.127152,145.059128 149.144636,147.433432 C149.923191,148.348994 150.913538,149.526712 150.341802,150.58229 C149.485689,150.143376 148.885117,149.318179 148.050879,148.836565 C147.217636,148.354952 145.886236,148.430421 145.58595,149.343997 C145.492483,149.627007 145.520324,149.939807 145.41592,150.218845 C145.079839,151.123484 143.741479,151.07284 143.032525,151.728231 C142.741189,151.996346 142.575136,152.369721 142.416045,152.731179 C141.560926,154.684444 140.685921,156.802549 141.14331,158.883914 C141.257657,159.402269 141.452545,159.94247 141.291464,160.447916 C141.124418,160.971236 140.624273,161.303897 140.157935,161.593858 C138.991592,162.321739 137.824256,163.048628 136.657914,163.775516 C136.278082,164.011854 136.618141,166.881674 136.89158,167.36726 C137.596556,168.615482 139.525544,168.936227 140.183787,167.452659" id="Fill-14" fill="#EEEFF0"></path>
            <path d="M38.1850279,402.951659 C38.8631569,403.468028 39.6357467,403.845375 40.3466884,404.314079 C42.2100518,405.543434 43.6647479,407.414279 45.738908,408.242455 C46.2828032,408.459926 46.8545396,408.597955 47.4242873,408.735985 C47.7583802,408.817412 48.101422,408.897847 48.4434695,408.862098 C48.785517,408.824363 49.1325361,408.646613 49.2767131,408.334806 C49.429839,408.005124 49.3473101,407.564224 49.6118003,407.314977 C49.8156367,407.121339 50.1765764,407.107437 50.3038498,406.856203 C50.3913504,406.681432 50.3207534,406.469919 50.2252982,406.29912 C49.5531352,405.093598 47.9164777,404.809595 46.9758471,403.798703 C46.8515566,403.664646 46.736215,403.515693 46.5741402,403.431287 C46.3911846,403.33695 46.1774049,403.338936 45.9755571,403.300208 C45.5529694,403.22176 45.1691603,402.952652 44.9523976,402.58325 C44.7982774,402.32308 44.7276804,402.024181 44.6014012,401.750109 C44.3856329,401.282397 44.0207159,400.904058 43.6607706,400.534656 C43.5235539,400.392654 43.3813656,400.247674 43.2003986,400.166246 C43.008494,400.080847 42.7897427,400.074889 42.5799403,400.086805 C42.112608,400.113616 41.6343381,400.222848 41.1849037,400.093756 C40.3775125,399.864369 39.8684186,398.931926 39.0331863,398.849505 C38.6473886,398.810778 38.2625852,398.972639 37.958322,399.21295 C37.6540588,399.452267 37.418404,399.76606 37.1887152,400.078861 C36.8178323,400.586292 36.4678302,401.022227 36.8645655,401.593212 C37.2245108,402.110574 37.6848829,402.570341 38.1850279,402.951659" id="Fill-15" fill="#EEEFF0"></path>
            <path d="M301.229488,40.1329555 C301.754491,39.7585881 302.24867,39.3186814 302.853219,39.0952525 C303.459757,38.8728167 304.230358,38.9294187 304.632065,39.4338714 C304.940305,39.8201551 304.95522,40.3543984 304.96914,40.8479279 C304.991016,41.5489981 305.040732,42.2639705 305.310194,42.9114177 C305.579655,43.557872 306.105653,44.135808 306.786765,44.2986628 C307.873561,44.5588333 308.953397,43.6879572 309.402832,42.6671355 C309.852266,41.6463138 309.860221,40.4954068 310.03025,39.3931577 C310.394173,37.0377209 311.550572,34.8103832 313.270752,33.1570095 C313.969762,32.4857299 314.776159,31.8819754 315.224599,31.0220225 C315.913666,29.6993236 315.599459,28.0975868 315.234542,26.6507607 C315.154002,26.3300161 315.055564,25.9854391 314.788091,25.7908077 C314.515646,25.5922043 314.147746,25.6090856 313.813653,25.5584417 C313.010239,25.4343146 312.298303,24.8345322 312.043756,24.0629578 C311.797164,23.3162088 311.962222,22.5059068 312.017904,21.7214232 C312.073586,20.9379326 311.966199,20.0481891 311.351707,19.5556526 C310.675566,19.0134652 309.703117,19.1812851 308.838056,19.1256761 C308.529815,19.1058158 308.204671,19.0442487 307.979954,18.8337291 C307.754242,18.6232094 307.688617,18.2200444 307.917311,18.0134968 C307.998846,17.9400136 308.106233,17.9002929 308.203677,17.848656 C308.711776,17.5805413 308.981238,16.9767869 308.970301,16.4028229 C308.959363,15.8288589 308.707799,15.2836925 308.39061,14.8050582 C307.096994,12.8577514 304.54357,11.8379227 302.26259,12.3562777 C302.008043,12.4138727 301.748525,12.4933141 301.554632,12.6670921 C301.283181,12.9074023 301.185737,13.2847488 300.984884,13.5876191 C300.627922,14.1298065 299.962719,14.3999071 299.316408,14.4704114 C298.670097,14.5419086 298.017821,14.446579 297.368527,14.4217535 C296.094798,14.3730957 294.779307,14.6134059 293.716375,15.313483 C292.652448,16.0135601 291.881847,17.2210691 291.908694,18.4921311 C291.931563,19.4911065 292.417788,20.4165985 292.610686,21.3957135 C292.944779,23.1007241 292.382986,24.9199316 292.907989,26.5762844 C293.079013,27.1144997 293.362395,27.6914427 293.146627,28.2127768 C292.991513,28.5821792 292.624607,28.8085871 292.301452,29.0459182 C291.21565,29.842318 290.416213,31.0220225 290.080132,32.3248611 C289.975728,32.725047 289.916068,33.1550235 290.049308,33.5462723 C290.453997,34.7329279 292.161252,34.740872 293.106854,35.5650763 C293.954018,36.3038811 294.048479,37.5610409 294.107144,38.6831504 C294.19365,40.2918383 294.461124,41.7317133 296.275765,41.717811 C298.039696,41.7049018 299.791695,41.1587423 301.229488,40.1329555" id="Fill-16" fill="#EEEFF0"></path>
            <path d="M314.844767,15.6868575 C314.998888,14.9589758 314.611101,14.2380453 314.490788,13.5042056 C314.469907,13.3701483 314.457975,13.2241748 314.522606,13.1040197 C314.587237,12.9798925 314.721471,12.9074023 314.855705,12.8666886 C315.570624,12.6492178 316.340231,13.2251678 316.57688,13.9331891 C316.813529,14.6422034 316.648471,15.4197358 316.416794,16.1297432 C316.185116,16.8397505 315.883836,17.5437997 315.850029,18.2905486 C315.787387,19.639066 316.766796,21.0014857 318.097201,21.2457679 C319.426613,21.4900501 320.890258,20.4523471 320.978753,19.1058158 C321.051338,17.9856924 320.299629,17.0075704 319.770649,16.0185252 C319.163117,14.8835065 318.818086,13.6094654 318.770359,12.3245011 C318.764393,12.1676044 318.763399,12.0057426 318.830018,11.8627481 C319.043798,11.4000021 319.706018,11.4774575 320.2171,11.4615692 C321.138839,11.4317787 321.948219,10.8558287 322.62237,10.2292348 C323.297516,9.60164791 323.915986,8.88766853 324.73332,8.46166414 C325.315994,8.15780087 325.973242,8.01679242 326.552933,7.70697105 C327.132624,7.39814269 327.657627,6.83907399 327.632769,6.1826896 C327.600951,5.32571574 326.679213,4.7299054 326.555916,3.88186869 C326.434609,3.04972026 327.055067,2.01003122 326.413728,1.4668508 C326.104493,1.20568727 325.633184,1.23746382 325.264289,1.4032977 C324.895395,1.57012459 324.590138,1.84618338 324.245107,2.05968208 C323.666411,2.4181613 322.993253,2.58995328 322.332028,2.75578716 C321.825917,2.88289336 321.3208,3.00999957 320.814689,3.13809879 C319.706018,3.41713663 318.432289,3.842148 318.066377,4.92255074 C317.919217,5.36047134 317.953024,5.83711961 317.862541,6.28993546 C317.75416,6.83609494 317.456857,7.34352674 317.033275,7.70597803 C316.314378,8.32363474 315.28923,8.4884756 314.351583,8.34846017 C313.413935,8.20844475 312.539924,7.79733561 311.693754,7.37133122 C311.385514,7.21542752 311.075285,7.05455873 310.823721,6.81921365 C309.999426,6.04863228 310.038205,4.75572385 310.123717,3.63063533 C310.208234,2.50653983 310.204257,1.20072218 309.339195,0.475819606 C308.787345,0.0130735786 307.997852,-0.0802700407 307.290887,0.0597453882 C306.584917,0.199760817 305.938606,0.545330812 305.304228,0.88593572 C304.578371,1.27619149 303.85152,1.66644726 303.125664,2.05670303 C302.925804,2.16494191 302.716002,2.28112492 302.592706,2.47178423 C302.482336,2.64159018 302.455489,2.85111681 302.448529,3.05369232 C302.389864,4.7239473 303.509473,6.1767315 304.572405,7.46864691 C304.92539,7.89763035 305.311188,8.34945319 305.84514,8.50833595 C306.429803,8.68012793 307.060204,8.46067112 307.664753,8.53614043 C308.598423,8.65232345 309.298428,9.43680705 309.79559,10.2332069 C310.423008,11.2401263 310.877414,12.3523056 311.131961,13.5101637 C311.334803,14.4267186 311.423298,16.0483157 312.292337,16.6490912 C313.189218,17.2687339 314.615078,16.7622951 314.844767,15.6868575" id="Fill-17" fill="#EEEFF0"></path>
            <g id="maps" transform="translate(171.4483, 294.397)">
                <path d="M24.6087913,4.19554284 C18.9874259,-1.39851428 9.8435165,-1.39851428 4.22215115,4.19554284 C1.49947637,6.90606535 0,10.5104836 0,14.3455846 C0,18.1806856 1.49947637,21.7851039 4.22215115,24.4934083 L13.6289702,33.8582414 C13.8384067,34.0667431 14.1213689,34.1820845 14.4176993,34.1820845 C14.7140296,34.1820845 14.9969918,34.064525 15.2064283,33.8582414 L24.6132474,24.4934083 C27.3359221,21.7851039 28.8353985,18.1806856 28.8353985,14.3455846 C28.8353985,10.5104836 27.331466,6.90606535 24.6087913,4.19554284 Z" id="Path" fill="#E91E63" fill-rule="nonzero"></path>
                <ellipse id="Oval" fill="#FFFFFF" cx="14.4176993" cy="14.3987498" rx="4.47445839" ry="4.46857752"></ellipse>
                <path d="M18.8247784,37.5025855 C17.5289593,37.5025855 16.5570949,37.5025855 15.9091854,37.5025855 C14.5969077,37.5025855 12.6284913,37.5025855 10.003936,37.5025855 C9.38899469,37.5025855 8.88991192,37.9994407 8.88991192,38.6116373 C8.88991192,39.2238339 9.38899469,39.720689 10.003936,39.720689 L18.8247784,39.720689 C19.4397197,39.720689 19.9388024,39.2238339 19.9388024,38.6116373 C19.9388024,37.9994407 19.4419477,37.5025855 18.8247784,37.5025855 Z" id="Path" fill="#E91E63" fill-rule="nonzero"></path>
            </g>
            <g id="maps" transform="translate(164.4881, 365.8942)">
                <path d="M24.6087913,4.19554284 C18.9874259,-1.39851428 9.8435165,-1.39851428 4.22215115,4.19554284 C1.49947637,6.90606535 0,10.5104836 0,14.3455846 C0,18.1806856 1.49947637,21.7851039 4.22215115,24.4934083 L13.6289702,33.8582414 C13.8384067,34.0667431 14.1213689,34.1820845 14.4176993,34.1820845 C14.7140296,34.1820845 14.9969918,34.064525 15.2064283,33.8582414 L24.6132474,24.4934083 C27.3359221,21.7851039 28.8353985,18.1806856 28.8353985,14.3455846 C28.8353985,10.5104836 27.331466,6.90606535 24.6087913,4.19554284 Z" id="Path" fill="#E91E63" fill-rule="nonzero"></path>
                <ellipse id="Oval" fill="#FFFFFF" cx="14.4176993" cy="14.3987498" rx="4.47445839" ry="4.46857752"></ellipse>
                <path d="M18.8247784,37.5025855 C17.5289593,37.5025855 16.5570949,37.5025855 15.9091854,37.5025855 C14.5969077,37.5025855 12.6284913,37.5025855 10.003936,37.5025855 C9.38899469,37.5025855 8.88991192,37.9994407 8.88991192,38.6116373 C8.88991192,39.2238339 9.38899469,39.720689 10.003936,39.720689 L18.8247784,39.720689 C19.4397197,39.720689 19.9388024,39.2238339 19.9388024,38.6116373 C19.9388024,37.9994407 19.4419477,37.5025855 18.8247784,37.5025855 Z" id="Path" fill="#E91E63" fill-rule="nonzero"></path>
            </g>
            <g id="maps" transform="translate(424.0066, 477.1122)">
                <path d="M24.6087913,4.19554284 C18.9874259,-1.39851428 9.8435165,-1.39851428 4.22215115,4.19554284 C1.49947637,6.90606535 0,10.5104836 0,14.3455846 C0,18.1806856 1.49947637,21.7851039 4.22215115,24.4934083 L13.6289702,33.8582414 C13.8384067,34.0667431 14.1213689,34.1820845 14.4176993,34.1820845 C14.7140296,34.1820845 14.9969918,34.064525 15.2064283,33.8582414 L24.6132474,24.4934083 C27.3359221,21.7851039 28.8353985,18.1806856 28.8353985,14.3455846 C28.8353985,10.5104836 27.331466,6.90606535 24.6087913,4.19554284 Z" id="Path" fill="#E91E63" fill-rule="nonzero"></path>
                <ellipse id="Oval" fill="#FFFFFF" cx="14.4176993" cy="14.3987498" rx="4.47445839" ry="4.46857752"></ellipse>
                <path d="M18.8247784,37.5025855 C17.5289593,37.5025855 16.5570949,37.5025855 15.9091854,37.5025855 C14.5969077,37.5025855 12.6284913,37.5025855 10.003936,37.5025855 C9.38899469,37.5025855 8.88991192,37.9994407 8.88991192,38.6116373 C8.88991192,39.2238339 9.38899469,39.720689 10.003936,39.720689 L18.8247784,39.720689 C19.4397197,39.720689 19.9388024,39.2238339 19.9388024,38.6116373 C19.9388024,37.9994407 19.4419477,37.5025855 18.8247784,37.5025855 Z" id="Path" fill="#E91E63" fill-rule="nonzero"></path>
            </g>
        </g>
    </g>
</svg>