<?xml version="1.0" encoding="UTF-8"?>
<svg width="355px" height="30px" viewBox="0 0 355 30" version="1.1" xmlns="http://www.w3.org/2000/svg" xmlns:xlink="http://www.w3.org/1999/xlink">
    <title>payment-icons</title>
    <g id="Competition" stroke="none" stroke-width="1" fill="none" fill-rule="evenodd">
        <g id="McKinney-Competitions-Landing-Page-(alt)" transform="translate(-1505, -4526)" fill-rule="nonzero">
            <g id="payment-icons" transform="translate(1505, 4526)">
                <g id="mastercard-2">
                    <path d="M36.2663817,29.5913624 L36.2663817,29.7820631 L36.3743656,29.7820631 C36.3946364,29.7825984 36.4146259,29.7742041 36.4322658,29.7577488 C36.4465591,29.741089 36.4547368,29.7136161 36.4539784,29.6848057 C36.4547204,29.6565252 36.4465013,29.6296349 36.4322658,29.6137697 C36.4148271,29.5965061 36.3946948,29.5880518 36.3743656,29.5894554 L36.2663817,29.5894554 L36.2663817,29.5913624 Z M36.336118,29.5355797 C36.3656918,29.533686 36.3949801,29.5425434 36.4189876,29.5606413 C36.4385052,29.5773022 36.4492813,29.6026252 36.448029,29.6288862 C36.4489185,29.6514389 36.4404226,29.6732938 36.4247219,29.6888414 C36.4062048,29.7056201 36.3829718,29.7156977 36.3585002,29.717566 L36.4509886,29.8274518 L36.3797725,29.8274518 L36.2946832,29.7183371 L36.2671216,29.7183371 L36.2671216,29.8274518 L36.2075591,29.8274518 L36.2075591,29.5357725 L36.3370429,29.5357725 L36.336118,29.5355797 Z M36.3176203,29.928084 C36.3488592,29.9283905 36.3798084,29.9218212 36.4084439,29.9088058 C36.4360531,29.8964196 36.4611598,29.8786921 36.4824347,29.8565619 C36.50375,29.8344591 36.520771,29.8082758 36.5325634,29.779449 C36.5568374,29.7183459 36.5568374,29.6496978 36.5325634,29.5885947 C36.5205974,29.559867 36.5035974,29.533716 36.4824347,29.5114819 C36.4611512,29.4893625 36.4360467,29.4716365 36.4084439,29.459238 C36.379636,29.446931 36.3487528,29.440769 36.3176203,29.4411164 C36.2859516,29.4408098 36.2545315,29.446966 36.2251319,29.459238 C36.1969102,29.4713924 36.1712176,29.4891345 36.1494763,29.5114819 C36.0825844,29.5829919 36.0631438,29.6892283 36.1000875,29.7813768 C36.1113524,29.8103113 36.1281573,29.8365495 36.1494763,29.8584897 C36.1712294,29.8808219 36.1969191,29.8985619 36.2251319,29.9107336 C36.254355,29.923741 36.2858448,29.9303047 36.3176203,29.9300118 M36.3176203,29.3709438 C36.3989159,29.3708579 36.4769831,29.4040949 36.5349681,29.4634792 C36.5629252,29.4919929 36.5851814,29.5259996 36.6004499,29.5635331 C36.6323972,29.6414135 36.6323972,29.729522 36.6004499,29.8074024 C36.5848224,29.8447304 36.5626106,29.8786693 36.5349681,29.9074563 C36.5065878,29.9358173 36.4735752,29.9586673 36.4374853,29.9749301 C36.399587,29.9917112 36.3587967,30.0002398 36.3176203,29.9999917 C36.2759595,30.0003037 36.2346736,29.9917768 36.1962755,29.9749301 C36.1597701,29.9590459 36.1264517,29.936158 36.0980527,29.9074563 C36.0704118,29.8776151 36.0484995,29.8425419 36.0334958,29.8041251 C36.0015485,29.7262447 36.0015485,29.6381362 36.0334958,29.5602558 C36.0487644,29.5227223 36.0710206,29.4887156 36.0989776,29.4602019 C36.126992,29.4310047 36.1604097,29.4080485 36.1972003,29.3927281 C36.2355984,29.3758814 36.2768844,29.3673545 36.3185452,29.3676582 M7.99396075,28.244518 C7.99396075,27.6883416 8.34356705,27.231448 8.91496063,27.231448 C9.46101237,27.231448 9.82948631,27.6686778 9.82948631,28.244518 C9.82948631,28.8203581 9.46101237,29.2575879 8.91496063,29.2575879 C8.34356705,29.2575879 7.99396075,28.8006943 7.99396075,28.244518 M10.4519335,28.244518 L10.4519335,26.661777 L9.79175103,26.661777 L9.79175103,27.0473411 C9.58235721,26.7624092 9.26475191,26.5837002 8.8328309,26.5837002 C7.98193726,26.5837002 7.31417073,27.279258 7.31417073,28.2452891 C7.31417073,29.2113202 7.9815673,29.906878 8.8328309,29.906878 C9.26456693,29.906878 9.58235721,29.7279762 9.79175103,29.443237 L9.79175103,29.8274518 L10.4511936,29.8274518 L10.4511936,28.244518 L10.4519335,28.244518 Z M32.7586652,28.244518 C32.7586652,27.6883416 33.1082715,27.231448 33.67985,27.231448 C34.2264567,27.231448 34.5943757,27.6686778 34.5943757,28.244518 C34.5943757,28.8203581 34.2264567,29.2575879 33.67985,29.2575879 C33.1084564,29.2575879 32.7586652,28.8006943 32.7586652,28.244518 M35.2173778,28.244518 L35.2173778,25.3913429 L34.5566404,25.3913429 L34.5566404,27.0473411 C34.3472466,26.7624092 34.0296413,26.5837002 33.5977203,26.5837002 C32.7468266,26.5837002 32.0790601,27.279258 32.0790601,28.2452891 C32.0790601,29.2113202 32.7464567,29.906878 33.5977203,29.906878 C34.0296413,29.906878 34.3472466,29.7279762 34.5566404,29.443237 L34.5566404,29.8274518 L35.2173778,29.8274518 L35.2173778,28.244518 Z M18.6456693,27.1988679 C19.0711161,27.1988679 19.344327,27.4768597 19.4140632,27.9663334 L17.8388001,27.9663334 C17.9092763,27.5094398 18.1754581,27.1988679 18.6458543,27.1988679 M18.6589876,26.5819652 C17.7692488,26.5819652 17.1468016,27.2567025 17.1468016,28.2435541 C17.1468016,29.2496838 17.7942207,29.9051429 18.7031971,29.9051429 C19.1604599,29.9051429 19.5792476,29.7861964 19.9477215,29.4617441 L19.624197,28.9518355 C19.3696688,29.1638958 19.0455893,29.2828423 18.7409324,29.2828423 C18.3154856,29.2828423 17.928144,29.0775294 17.8328809,28.5078583 L20.0871941,28.5078583 C20.0936683,28.4222631 20.1003275,28.3358967 20.1003275,28.2433613 C20.0936683,27.2568953 19.5084014,26.5817724 18.6586177,26.5817724 M26.6292713,28.2433613 C26.6292713,27.6871849 26.9788776,27.2302914 27.5502712,27.2302914 C28.096323,27.2302914 28.4647969,27.6675212 28.4647969,28.2433613 C28.4647969,28.8192014 28.096323,29.2564312 27.5502712,29.2564312 C26.9788776,29.2564312 26.6290864,28.7995376 26.6290864,28.2433613 M29.0870591,28.2433613 L29.0870591,26.661777 L28.4272466,26.661777 L28.4272466,27.0473411 C28.2171129,26.7624092 27.9002475,26.5837002 27.4683265,26.5837002 C26.6174328,26.5837002 25.9496663,27.279258 25.9496663,28.2452891 C25.9496663,29.2113202 26.6170629,29.906878 27.4683265,29.906878 C27.9002475,29.906878 28.2171129,29.7279762 28.4272466,29.443237 L28.4272466,29.8274518 L29.0872441,29.8274518 L29.0872441,28.244518 L29.0870591,28.2433613 Z M22.9010624,28.2433613 C22.9010624,29.2032233 23.5421922,29.9049502 24.5207199,29.9049502 C24.9779828,29.9049502 25.2826397,29.79892 25.6120835,29.5276756 L25.2950331,28.9714993 C25.0471641,29.1571484 24.7869016,29.2564312 24.4996325,29.2564312 C23.9726334,29.2496838 23.5851069,28.8525527 23.5851069,28.2433613 C23.5851069,27.6341698 23.9726334,27.2372315 24.4996325,27.2302914 C24.7861617,27.2302914 25.0464242,27.3295741 25.2950331,27.5152233 L25.6120835,26.9590469 C25.2820847,26.6878025 24.9774278,26.5817724 24.5207199,26.5817724 C23.5421922,26.5817724 22.9010624,27.2833064 22.9010624,28.2433613 M31.4118485,26.5817724 C31.0309811,26.5817724 30.7829271,26.7674215 30.6114536,27.0454133 L30.6114536,26.661777 L29.9571904,26.661777 L29.9571904,29.8257167 L30.6181127,29.8257167 L30.6181127,28.0521214 C30.6181127,27.5285253 30.8339808,27.2376171 31.2655318,27.2376171 C31.4068484,27.2354913 31.54717,27.2625514 31.6784002,27.3172361 L31.8818748,26.6687171 C31.735743,26.6087619 31.5452168,26.5823507 31.4114786,26.5823507 M13.7158505,26.9133576 C13.3982452,26.6951283 12.9605899,26.5823507 12.4778003,26.5823507 C11.7086664,26.5823507 11.2134833,26.9665654 11.2134833,27.5952279 C11.2134833,28.1111128 11.5821422,28.429396 12.2610074,28.5286788 L12.5728784,28.5749465 C12.9348781,28.6279616 13.1057968,28.7272443 13.1057968,28.9059533 C13.1057968,29.1505938 12.8653268,29.2901681 12.4137983,29.2901681 C11.9565354,29.2901681 11.6265367,29.1378702 11.4040095,28.9591612 L11.0938033,29.4956738 C11.455803,29.7736656 11.9130659,29.9062996 12.408249,29.9062996 C13.2850394,29.9062996 13.7931709,29.47601 13.7931709,28.8735659 C13.7931709,28.3173896 13.3932508,28.0264814 12.7325134,27.9271986 L12.4213823,27.8801598 C12.1355931,27.8416034 11.9065917,27.7816482 11.9065917,27.5695878 C11.9065917,27.3382493 12.1224597,27.1990607 12.4846444,27.1990607 C12.872171,27.1990607 13.2473041,27.3513585 13.4311711,27.4703051 L13.7169604,26.9141287 L13.7158505,26.9133576 Z M22.2342207,26.5829291 C21.8533533,26.5829291 21.6052993,26.7685782 21.4345657,27.04657 L21.4345657,26.661777 L20.7803025,26.661777 L20.7803025,29.8257167 L21.4404849,29.8257167 L21.4404849,28.0521214 C21.4404849,27.5285253 21.656353,27.2376171 22.087904,27.2376171 C22.2292206,27.2354913 22.3695422,27.2625514 22.5007724,27.3172361 L22.704247,26.6687171 C22.5581152,26.6087619 22.3675891,26.5823507 22.2338508,26.5823507 M16.6005649,26.661777 L15.5210399,26.661777 L15.5210399,25.7019149 L14.8536433,25.7019149 L14.8536433,26.661777 L14.2378553,26.661777 L14.2378553,27.2906322 L14.8536433,27.2906322 L14.8536433,28.7339917 C14.8536433,29.4681059 15.1270391,29.9053357 15.9080115,29.9053357 C16.1945407,29.9053357 16.5245394,29.8128003 16.7339333,29.6606952 L16.5432221,29.0715532 C16.3462217,29.1904997 16.1303537,29.2504549 15.9586952,29.2504549 C15.6286964,29.2504549 15.5210399,29.0383946 15.5210399,28.7208825 L15.5210399,27.2912105 L16.6005649,27.2912105 L16.6005649,26.661777 Z M6.7303837,29.8264879 L6.7303837,27.8408323 C6.7303837,27.0930305 6.27312086,26.5898692 5.535988,26.5831219 C5.14846144,26.5763745 4.74872641,26.7020684 4.46885639,27.1460456 C4.25946257,26.7951822 3.92946382,26.5831219 3.46554181,26.5831219 C3.14127734,26.5831219 2.82441195,26.6824046 2.57635796,27.0529318 L2.57635796,26.661777 L1.91562055,26.661777 L1.91562055,29.8257167 L2.58153731,29.8257167 L2.58153731,28.0713996 C2.58153731,27.5221634 2.87380077,27.2302914 3.32514436,27.2302914 C3.76353956,27.2302914 3.98532683,27.5281397 3.98532683,28.0644595 L3.98532683,29.8253312 L4.65272341,29.8253312 L4.65272341,28.0710141 C4.65272341,27.5217779 4.95738033,27.2299058 5.39559055,27.2299058 C5.8463792,27.2299058 6.06150731,27.5277541 6.06150731,28.0640739 L6.06150731,29.8249456 L6.7303837,29.8264879 Z" id="Shape" fill="#FFFFFF"></path>
                    <path d="M36.6567088,19.3017421 L36.6567088,18.839065 L36.5394305,18.839065 L36.4037631,19.1565771 L36.2688462,18.839065 L36.1511927,18.839065 L36.1511927,19.3017421 L36.2345071,19.3017421 L36.2345071,18.953192 L36.3613553,19.2539321 L36.4476721,19.2539321 L36.5745202,18.9524209 L36.5745202,19.3017421 L36.6570841,19.3017421 L36.6567088,19.3017421 Z M35.9126957,19.3017421 L35.9126957,18.9182985 L36.0628118,18.9182985 L36.0628118,18.8402217 L35.6792651,18.8402217 L35.6792651,18.9182985 L35.8293812,18.9182985 L35.8293812,19.3017421 L35.9119451,19.3017421 L35.9126957,19.3017421 Z" id="Shape" fill="#FFFFFF"></path>
                    <polygon id="Path" fill="#FFFFFF" points="23.5026072 21.2860482 13.4979478 21.2860482 13.4979478 2.54762837 23.5027922 2.54762837"></polygon>
                    <path d="M14.1322335,11.9172238 C14.1322335,8.11613924 15.83994,4.73011449 18.4993526,2.54801394 C16.4862692,0.89384158 13.9966218,-0.00393443334 11.4332358,0 C5.11868016,0 0,5.33545027 0,11.9172238 C0,18.4989974 5.11868016,23.834448 11.4332358,23.834448 C13.9966852,23.8384255 16.4864044,22.9406471 18.4993526,21.2864337 C15.84031,19.1047188 14.1322335,15.7185012 14.1322335,11.9172238" id="Path" fill="#F6F7F7"></path>
                    <path d="M37,11.9172238 C37,18.4989974 31.8813198,23.8344475 25.5667642,23.8344475 C23.0030439,23.8383559 20.5130533,22.9405971 18.4997225,21.2864337 C21.15969,19.1043332 22.8673966,15.7185012 22.8673966,11.9172238 C22.8673966,8.11594646 21.15969,4.73011449 18.4997225,2.54801394 C20.5130036,0.893891556 23.0029223,-0.00386479088 25.5665792,4.52106178e-07 C31.8811349,4.52106178e-07 37,5.33545027 37,11.9172238" id="Path" fill="#F6F7F7"></path>
                </g>
                <g id="maestrocard" transform="translate(57, 0)">
                    <path d="M36.6568569,19.3044818 L36.6568569,18.84179 L36.5395795,18.84179 L36.4039129,19.1593123 L36.2689969,18.84179 L36.1509689,18.84179 L36.1509689,19.3044818 L36.2342828,19.3044818 L36.2342828,18.9559206 L36.3611301,19.2566703 L36.4474463,19.2566703 L36.5742936,18.9551495 L36.5742936,19.3044818 L36.6568569,19.3044818 Z M35.912661,19.3044818 L35.912661,18.921026 L36.0627762,18.921026 L36.0627762,18.8439106 L35.679232,18.8439106 L35.679232,18.921026 L35.8293471,18.921026 L35.8293471,19.3044818 L35.9119105,19.3044818 L35.912661,19.3044818 Z" id="Shape" fill="#FFFFFF"></path>
                    <polygon id="Path" fill="#F6F7F7" points="23.5023094 21.2892371 13.4976906 21.2892371 13.4976906 2.54809632 23.5023094 2.54809632"></polygon>
                    <path d="M14.1326432,11.9189559 C14.1326432,8.11717115 15.8403383,4.73065236 18.4996301,2.54828911 C16.4866467,0.893829056 13.99688,-0.00404886473 11.433401,0 C5.11864652,0 0,5.33620032 0,11.9189559 C0,18.5017115 5.11864652,23.8381043 11.433216,23.8381043 C13.9967756,23.8421118 16.4866071,22.944166 18.4996301,21.2896227 C15.8403383,19.1072594 14.1326432,15.7207406 14.1326432,11.9189559" id="Path" fill="#FFFFFF"></path>
                    <path d="M37,11.9189559 C37,18.5017115 31.8811685,23.8381035 25.566599,23.8381035 C23.0028319,23.8419987 20.5128009,22.944075 18.4994451,21.2896227 C21.1589219,19.1072594 22.8673568,15.7207406 22.8673568,11.9189559 C22.8673568,8.11717115 21.1589219,4.73084515 18.4994451,2.5484819 C20.5129291,0.894057171 23.0028929,-0.00386577447 25.566599,1.2074579e-06 C31.8811685,1.2074579e-06 37,5.33620032 37,11.9189559" id="Path" fill="#FFFFFF"></path>
                    <path d="M26.887552,26.5855165 C27.0205351,26.5855165 27.2117792,26.6121213 27.3578941,26.6718857 L27.1544429,27.3206182 C27.0231729,27.2658969 26.8828003,27.2388351 26.7414371,27.2409966 C26.3095657,27.2409966 26.0940924,27.5319141 26.0940924,28.0549487 L26.0940924,29.8297576 L25.433246,29.8297576 L25.433246,26.6645597 L26.087619,26.6645597 L26.087619,27.0482084 C26.2592578,26.7700149 26.5070983,26.5843598 26.8881069,26.5843598 M24.4466928,27.2928567 L23.3671069,27.2928567 L23.3671069,28.7227673 C23.3671069,29.0402896 23.4747511,29.2523567 23.8054517,29.2523567 C23.9770905,29.2523567 24.1929337,29.1925923 24.3891716,29.0734492 L24.5796759,29.6622246 C24.3703061,29.8145273 24.0403453,29.9078368 23.7545889,29.9078368 C22.9729665,29.9078368 22.7003419,29.470593 22.7003419,28.7354913 L22.7003419,27.2926639 L22.0836999,27.2926639 L22.0836999,26.6645597 L22.700157,26.6645597 L22.700157,25.7044741 L23.3659972,25.7044741 L23.3659972,26.6645597 L24.4455831,26.6645597 L24.4455831,27.2934351 L24.4466928,27.2928567 Z M15.9925568,27.9676156 C16.0630249,27.5107074 16.329176,27.1991616 16.7995181,27.1991616 C17.224916,27.1991616 17.4980955,27.4773551 17.5678237,27.9676156 L15.9920019,27.9676156 L15.9925568,27.9676156 Z M18.254194,28.2458091 C18.2477205,27.2591187 17.662336,26.5839742 16.8115402,26.5839742 C15.9224586,26.5839742 15.300083,27.2587332 15.300083,28.2458091 C15.300083,29.2513927 15.9474276,29.9068729 16.8564844,29.9068729 C17.3136947,29.9068729 17.7324342,29.7879225 18.1010507,29.4634598 L17.7768236,28.9535349 C17.5230645,29.165602 17.1988373,29.2847451 16.8942154,29.2847451 C16.4688175,29.2847451 16.0815204,29.0794256 15.9862683,28.5103146 L18.2406922,28.5103146 C18.2471657,28.4239455 18.2538241,28.3383475 18.2538241,28.2458091 M21.1559626,27.4723426 C20.9719317,27.3526211 20.5975816,27.2003183 20.2100996,27.2003183 C19.8481414,27.2003183 19.6321133,27.3397042 19.6321133,27.5716285 C19.6321133,27.7836956 19.8603485,27.8428816 20.1461049,27.8824032 L20.4572003,27.9286724 C21.1180467,28.0287295 21.5179207,28.319647 21.5179207,28.8758412 C21.5179207,29.4783045 21.0098476,29.908608 20.1337129,29.908608 C19.6378469,29.908608 19.1806366,29.7759696 18.8186785,29.4977762 L19.1297739,28.9612464 C19.3517206,29.1401539 19.6829761,29.2924567 20.1401864,29.2924567 C20.5909232,29.2924567 20.8322903,29.1538419 20.8322903,28.9082296 C20.8322903,28.7300933 20.6606514,28.6300361 20.2986933,28.5777905 L19.987598,28.5315213 C19.3078861,28.4314642 18.9392696,28.1139419 18.9392696,27.5980405 C18.9392696,26.9691652 19.4351356,26.5849382 20.2034412,26.5849382 C20.6861753,26.5849382 21.1245201,26.6979121 21.441534,26.9161484 L21.1559626,27.4723426 Z M29.3017776,27.238876 C29.1720939,27.2378062 29.0434464,27.2630146 28.9229885,27.3130995 C28.8097308,27.3609427 28.7068831,27.4320836 28.6205861,27.5222747 C28.5337648,27.6145702 28.4655339,27.7240367 28.4199092,27.8442311 C28.3229949,28.1102659 28.3229949,28.4041013 28.4199092,28.6701361 C28.4655166,28.7903968 28.5337481,28.8999299 28.6205861,28.9922853 C28.7068638,29.0825011 28.8097165,29.1536455 28.9229885,29.2014606 C29.1668039,29.3006568 29.4374911,29.3006568 29.6813065,29.2014606 C29.7951159,29.1538471 29.8984896,29.0826904 29.9851886,28.9922853 C30.0731127,28.9003415 30.1423135,28.7908329 30.1886397,28.6703289 C30.285554,28.4042941 30.285554,28.1104587 30.1886397,27.8444239 C30.1423354,27.7238512 30.0731334,27.6142751 29.9851886,27.5222747 C29.8984734,27.4318904 29.7951039,27.3607367 29.6813065,27.3130995 C29.5608644,27.2629578 29.4322062,27.2377473 29.3025174,27.238876 M29.3025174,26.5849382 C29.5265824,26.5824944 29.7489226,26.6259896 29.9568903,26.7129496 C30.1508707,26.7933587 30.3277334,26.9128538 30.4773554,27.0645954 C30.6247149,27.2151494 30.7416285,27.3949638 30.8211879,27.5934136 C30.9868715,28.019077 30.9868715,28.4952903 30.8211879,28.9209536 C30.7416353,29.1196339 30.6247271,29.2997022 30.4773554,29.450543 C30.3275407,29.6020327 30.1507287,29.7214935 29.9568903,29.8021888 C29.5358974,29.9719025 29.0693223,29.9719025 28.6483294,29.8021888 C28.4552106,29.7215886 28.2792303,29.6020951 28.1304537,29.450543 C27.9839869,29.2992393 27.8676417,29.1192636 27.7881009,28.9209536 C27.6223586,28.4953022 27.6223586,28.0190651 27.7881009,27.5934136 C27.948995,27.1906682 28.2595347,26.8730284 28.6488843,26.7129496 C28.8568547,26.6259993 29.0791931,26.5825044 29.3032572,26.5849382 M12.1330881,28.2467731 C12.1330881,27.6905789 12.4826542,27.2336707 13.054167,27.2336707 C13.600156,27.2336707 13.9687725,27.6709145 13.9687725,28.2467731 C13.9687725,28.8226316 13.600156,29.2591043 13.054352,29.2591043 C12.4828391,29.2591043 12.133273,28.8029672 12.133273,28.2467731 M14.5911481,28.2467731 L14.5911481,26.6645597 L13.9310416,26.6645597 L13.9310416,27.0482084 C13.720932,26.7632673 13.4039181,26.5843598 12.9720467,26.5843598 C12.1212509,26.5843598 11.454116,27.2783976 11.454116,28.2461947 C11.454116,29.2139918 12.1199562,29.9080296 12.9720467,29.9080296 C13.4039181,29.9080296 13.720932,29.7291221 13.9310416,29.444181 L13.9310416,29.828408 L14.5911481,29.828408 L14.5911481,28.2461947 L14.5911481,28.2467731 Z M10.8696563,29.8289864 L10.8696563,27.8432672 C10.8696563,27.0952487 10.412446,26.5920713 9.67595277,26.5853237 C9.28847077,26.5785761 8.88785691,26.7042741 8.6087589,27.1482655 C8.39938915,26.7973908 8.06850356,26.5853237 7.60481984,26.5853237 C7.28133248,26.5853237 6.96357874,26.6846097 6.71573822,27.0551487 L6.71573822,26.6645597 L6.05563165,26.6645597 L6.05563165,29.8289864 L6.72147185,29.8289864 L6.72147185,28.0746131 C6.72147185,27.5251666 7.01370171,27.2334779 7.46443853,27.2334779 C7.90278333,27.2334779 8.12528493,27.5313358 8.12528493,28.0678655 L8.12528493,29.8289864 L8.79112513,29.8289864 L8.79112513,28.0746131 C8.79112513,27.5251666 9.09648684,27.2334779 9.53409182,27.2334779 C9.98556846,27.2334779 10.2014117,27.5313358 10.2014117,28.0678655 L10.2014117,29.8289864 L10.8672519,29.8289864 L10.8696563,29.8289864 Z M31.68752,29.5922025 L31.68752,29.7826856 L31.7950814,29.7826856 C31.8152074,29.7838412 31.8351125,29.7754141 31.8524476,29.758399 C31.8673065,29.7425895 31.8759471,29.7148065 31.8751072,29.6855392 C31.8759548,29.6567812 31.8672606,29.6295568 31.8524476,29.6145843 C31.8353185,29.5967564 31.815261,29.5882648 31.7950814,29.5902976 L31.68752,29.5922025 Z M31.7572483,29.5363338 C31.7868187,29.5344401 31.8161036,29.5432978 31.8401084,29.5613963 C31.8596237,29.5780577 31.8703985,29.6033815 31.8691464,29.6296433 C31.8699818,29.6521305 31.8614913,29.6739045 31.845842,29.6894077 C31.8272574,29.7060695 31.8040658,29.7161307 31.7796279,29.7181332 L31.8721057,29.8280225 L31.8008978,29.8280225 L31.7158182,29.7189043 L31.6882598,29.7189043 L31.6882598,29.8280225 L31.6274094,29.8280225 L31.6274094,29.5363338 L31.7572483,29.5363338 Z M31.7387527,29.9280796 C31.769988,29.9283861 31.8009336,29.9218166 31.8295659,29.9088008 C31.8571698,29.89641 31.8822728,29.8786825 31.9035481,29.8565551 C31.9248574,29.8344486 31.941876,29.8082652 31.9536711,29.7794398 C31.9779934,29.7182786 31.9779934,29.6495479 31.9536711,29.5883866 C31.9417026,29.5596602 31.924705,29.533509 31.9035481,29.5112713 C31.8824209,29.4891504 31.8572683,29.4716501 31.8295659,29.4597969 C31.8009336,29.4467811 31.769988,29.4402116 31.7387527,29.440518 C31.7069814,29.4402307 31.6754963,29.4467944 31.6462749,29.4597969 C31.6179621,29.4714118 31.5922213,29.4889273 31.570628,29.5112713 C31.5037891,29.5828082 31.4843564,29.689018 31.5212449,29.7811749 C31.5325131,29.8101078 31.5493155,29.8363459 31.570628,29.8582902 C31.5923787,29.8806232 31.6180653,29.8983637 31.6462749,29.9105359 C31.6754963,29.9235383 31.7069814,29.930102 31.7387527,29.9298147 M31.7387527,29.3707287 C31.7797545,29.3703779 31.8203788,29.3789125 31.8580491,29.3957912 C31.8947395,29.4113029 31.9281189,29.4342362 31.9562605,29.4632671 C31.9842143,29.4917817 32.006468,29.5257895 32.0217348,29.5633242 C32.0537312,29.6412628 32.0537312,29.7294555 32.0217348,29.8073941 C32.0062742,29.8445909 31.9840389,29.8783089 31.9562605,29.9066801 C31.9279501,29.9356876 31.8946259,29.9588445 31.8580491,29.9749271 C31.8203788,29.9918058 31.7797545,30.0003404 31.7387527,29.9999896 C31.6566196,30.0005326 31.5776451,29.9670364 31.5192104,29.9068729 C31.491432,29.8785016 31.4691967,29.8447837 31.4537361,29.8075869 C31.4217925,29.729704 31.4217925,29.6415927 31.4537361,29.5637098 C31.4690029,29.5261751 31.4912565,29.4921673 31.5192104,29.4636526 C31.5472215,29.4344546 31.5806354,29.4114976 31.6174218,29.3961767 C31.6558109,29.3793139 31.6970952,29.3707861 31.7387527,29.3711143" id="Shape" fill="#FFFFFF"></path>
                </g>
                <g id="visa" transform="translate(114, 8)">
                    <g id="Group" fill="#FFFFFF">
                        <path d="M19.5079225,14.7499806 L15.8360161,14.7499806 L18.1309105,0.258934801 L21.8031942,0.258934801 L19.5079225,14.7499806 Z M12.7469819,0.258934801 L9.24635312,10.2259865 L8.83211771,8.0796961 L8.83249497,8.08047135 L7.59695674,1.56368711 C7.59695674,1.56368711 7.44756036,0.258934801 5.85513078,0.258934801 L0.0679074447,0.258934801 L0,0.504302659 C0,0.504302659 1.76974346,0.88262656 3.84092052,2.16063261 L7.03106137,14.7503682 L10.8568913,14.7503682 L16.6988179,0.258934801 L12.7469819,0.258934801 Z M41.6283954,14.7499806 L45,14.7499806 L42.0603622,0.258547174 L39.1086519,0.258547174 C37.7455986,0.258547174 37.4136066,1.33847585 37.4136066,1.33847585 L31.9372485,14.7499806 L35.7649648,14.7499806 L36.5304326,12.5974882 L41.1983149,12.5974882 L41.6283954,14.7499806 Z M37.5879024,9.62400186 L39.5172284,4.20110086 L40.6026157,9.62400186 L37.5879024,9.62400186 Z M32.2243461,3.74370106 L32.7483652,0.631831925 C32.7483652,0.631831925 31.1314135,0 29.4457998,0 C27.6236167,0 23.2964034,0.818280487 23.2964034,4.79727111 C23.2964034,8.54097217 28.3751258,8.5874874 28.3751258,10.5539189 C28.3751258,12.5203504 23.819668,12.1679975 22.3162726,10.9279789 L21.7703722,14.1817195 C21.7703722,14.1817195 23.4099598,15 25.9149899,15 C28.4207746,15 32.2009557,13.6669509 32.2009557,10.0387627 C32.2009557,6.27102876 27.0765845,5.92022637 27.0765845,4.28211489 C27.0769618,2.64361578 30.6530433,2.85409722 32.2243461,3.74370106 L32.2243461,3.74370106 Z" id="Shape"></path>
                    </g>
                    <path d="M8.83249497,8.08008373 L7.59695674,1.56329948 C7.59695674,1.56329948 7.44756036,0.258547174 5.85513078,0.258547174 L0.0679074447,0.258547174 L0,0.503915032 C0,0.503915032 2.78156439,1.09620901 5.44957243,3.31537328 C8.00062877,5.43646794 8.83249497,8.08008373 8.83249497,8.08008373 Z" id="Path" fill="#E0E0E0"></path>
                </g>
                <g id="paypal-logo" transform="translate(179, 7)" fill="#FFFFFF">
                    <path d="M11.2914173,2.76938297 C11.0852028,2.3570277 10.7590091,2.01692804 10.3540789,1.76154184 C9.93165177,1.50366408 9.43298776,1.32302506 8.86308604,1.21588744 C8.28318605,1.11124139 7.61330157,1.06390151 6.83718541,1.05642679 L3.25405333,1.05891836 C2.88161756,1.06390151 2.5166805,1.35292393 2.42919558,1.71171039 L0.0183613363,12.178807 C-0.0691235767,12.5326103 0.164586119,12.8291074 0.537021892,12.8291074 L2.25297597,12.8291074 C2.62541174,12.8291074 2.99409816,12.5413308 3.07658394,12.178807 L3.66523242,9.6374029 C3.74396885,9.28359959 4.11140548,8.98834823 4.48759061,8.98834823 L4.9787559,8.98834823 C7.07714403,8.98585666 8.70186385,8.55855196 9.86916254,7.70269676 C11.0427102,6.84559578 11.6213604,5.71317602 11.6213604,4.31042064 C11.6201106,3.69624798 11.518878,3.18049245 11.2914173,2.76938297 Z M7.59080545,6.18906639 C7.07214489,6.56778543 6.35101925,6.75714495 5.42117961,6.75714495 L5.00125202,6.75714495 C4.62756647,6.75714495 4.39885591,6.46313938 4.4800919,6.10435292 L4.99625289,3.88187015 C5.06874039,3.52557526 5.44492551,3.2303239 5.81361193,3.23281548 L6.37601494,3.22907812 C7.03215179,3.22907812 7.53331536,3.34244467 7.8682576,3.56170306 C8.19945049,3.77846988 8.36567182,4.12355269 8.36317225,4.58075627 C8.37317053,5.27590503 8.10696644,5.81034735 7.59080545,6.18906639 Z" id="Shape"></path>
                    <polygon id="Path" points="60.2079815 1.87615418 60.1005 1.90854463 59.9567748 1.92847721 59.7805552 1.90106991 59.6905707 1.81386487 59.6493278 1.67682837 59.6468283 1.47127363 59.6468283 0.710098197 60.2204793 0.710098197 60.2204793 0.474644584 59.6468283 0.474644584 59.6468283 0 59.3631272 0 59.3631272 0.474644584 59.1706604 0.474644584 59.1706604 0.710098197 59.3631272 0.710098197 59.3631272 1.59585226 59.4956043 2.03436905 59.8855371 2.17389711 60.0492589 2.16019346 60.2229789 2.12655723 60.2229789 1.87615418"></polygon>
                    <polygon id="Path" points="62.8687726 0.595485857 62.4588433 0.427304705 62.1563955 0.488348234 61.8489485 0.695148762 61.6702293 0.497068738 61.3802793 0.428550491 61.1015774 0.48959402 60.8378729 0.659020959 60.8378729 0.474644584 60.5591709 0.474644584 60.5591709 2.13776931 60.8366231 2.13776931 60.8366231 0.895720358 61.0703328 0.751209146 61.3027927 0.693902975 61.4927599 0.727539206 61.5864938 0.823464752 61.6277367 0.982925399 61.6414843 1.18848014 61.6414843 2.1390151 61.9201862 2.1390151 61.9201862 1.07511359 61.9151871 0.986662758 61.9101879 0.905686648 62.147647 0.754946504 62.3826065 0.696394548 62.5663248 0.730030778 62.6663075 0.825956324 62.7013015 0.986662758 62.7200483 1.18972593 62.7200483 2.14026088 63 2.14026088 63 1.06016415"></polygon>
                    <path d="M19.5662403,4.26557233 C18.9188519,3.90180273 17.8965282,3.71991792 16.4992692,3.71991792 C15.8081384,3.71991792 15.1195071,3.77348674 14.4233772,3.88062436 C13.9097157,3.9591089 13.8597244,3.97405833 13.5435289,4.04257658 C12.8911414,4.18459622 12.7886591,4.83365089 12.7886591,4.83365089 L12.5786953,5.69448923 C12.4599658,6.24388099 12.777411,6.22270262 12.9098882,6.17660853 C13.194839,6.09189506 13.3535616,6.00469002 13.9359612,5.87512824 C14.4921153,5.74930383 15.0782642,5.65462407 15.543184,5.660853 C16.2293157,5.660853 16.7542252,5.7331086 17.1041648,5.88011139 C17.4491054,6.02960575 17.6215756,6.28623773 17.6215756,6.65748205 L17.5915808,6.89916459 L17.3441235,7.05115052 C16.3705414,7.11219405 15.6669127,7.20189066 14.8133099,7.32522351 C13.9784539,7.44108164 13.2460802,7.6441448 12.6374351,7.92195515 C11.9837979,8.208486 11.4988815,8.59343397 11.1601899,9.08302799 C10.8327464,9.57511359 10.6690246,10.1718452 10.6690246,10.8719771 C10.6690246,11.5309981 10.9064837,12.0754067 11.3676541,12.4964825 C11.8313242,12.9100835 12.4437186,13.1119009 13.1760923,13.1119009 C13.6397623,13.1094094 13.9984504,13.0732815 14.2534065,13.012238 L15.0845131,12.726953 L15.7881418,12.3382676 L16.4355302,11.9122087 L16.4442786,11.9246666 L16.3792899,12.1987396 L16.3755405,12.2099516 L16.3755405,12.2124432 C16.3055526,12.5463139 16.5080177,12.8203869 16.8342114,12.8527774 L16.8404603,12.8602521 L16.8704552,12.8602521 L18.1864782,12.8602521 L18.4339355,12.8602521 L18.4564316,12.8502858 C18.7988726,12.8104206 19.1200672,12.5363476 19.1950543,12.2099516 L20.4460885,6.81195955 L20.5110773,6.37219698 L20.5411279,5.95984171 C20.5460713,5.19492892 20.2148784,4.62809615 19.5662403,4.26557233 Z M16.7992174,10.3350432 L16.5317636,10.686355 L15.8568799,11.0339294 C15.5394347,11.1622453 15.2382366,11.2270262 14.9595347,11.2270262 C14.5371075,11.2270262 14.2059147,11.1659827 13.9822032,11.0414041 L13.6510104,10.3998241 C13.6510104,10.0522497 13.7309966,9.77693097 13.902217,9.5651473 L14.6295916,9.07181592 C14.9407879,8.96716987 15.3207224,8.87871904 15.7606465,8.81767551 C16.1530789,8.76908984 16.9279452,8.68063902 17.0291778,8.67814744 L17.1479073,8.88619376 C17.1241614,9.00454346 16.9041993,9.92144218 16.7992174,10.3350432 Z" id="Shape"></path>
                    <path d="M50.7333654,4.27304705 C50.0822277,3.90927744 49.0611538,3.72614686 47.6676441,3.72614686 C46.9765133,3.72614686 46.2866323,3.77971567 45.5930019,3.89059065 C45.0780907,3.96533783 45.0268495,3.98153305 44.7094043,4.04880551 C44.0582665,4.18957936 43.957034,4.8411256 43.957034,4.8411256 L43.7470702,5.70071816 C43.6295905,6.25010992 43.939537,6.2251942 44.084512,6.18283746 C44.3707127,6.09812399 44.5244362,6.01465631 45.1018366,5.88011139 C45.6554911,5.75553276 46.2466392,5.66334457 46.7128088,5.66583614 C47.3964409,5.66583614 47.9213503,5.73933753 48.2700402,5.88634032 C48.6174803,6.03583468 48.787451,6.29495823 48.787451,6.66246519 L48.7612055,6.90290195 L48.5162478,7.05862524 C47.5326674,7.11717719 46.8277889,7.20687381 45.9829346,7.33020665 C45.1505782,7.44606478 44.4157049,7.64788216 43.8058101,7.9269383 C43.1546724,8.21471493 42.6635071,8.5996629 42.3285648,9.09050271 C41.997372,9.5825883 41.8361498,10.1780742 41.8361498,10.8719771 C41.8361498,11.5359812 42.0711092,12.0803899 42.5385286,12.4989741 C43.0046982,12.9113293 43.6108437,13.1181299 44.3432174,13.1181299 C44.8043879,13.1131467 45.163076,13.0832478 45.4192818,13.0172212 L46.2478889,12.7356735 L46.9577665,12.3469881 L47.6001557,11.9159461 L47.6114038,11.9296497 L47.5526639,12.2062143 L47.546415,12.2111974 L47.5489146,12.2161806 C47.4714279,12.5500513 47.6751428,12.8266159 48.0050859,12.8565147 L48.0075855,12.8627437 L48.0375803,12.8627437 C48.253793,12.8627437 49.0011641,12.8627437 49.3573527,12.8627437 L49.5998109,12.8627437 L49.6260564,12.8540232 C49.964748,12.8129122 50.2846928,12.5388392 50.3559305,12.2087058 L51.6107141,6.81818848 L51.6769527,6.37593434 L51.7132,5.96233328 C51.7144462,5.19991206 51.3870027,4.63557086 50.7333654,4.27304705 Z M47.9725915,10.342518 L47.6938896,10.6975671 L47.0252549,11.0426499 C46.7078096,11.1697201 46.4053618,11.2357467 46.131659,11.2357467 C45.6954842,11.2357467 45.3730398,11.1734574 45.1555773,11.0488788 L44.8206351,10.4097904 C44.8206351,10.0609702 44.9018711,9.78814305 45.0655928,9.57262201 C45.2318142,9.36955885 45.4855204,9.20262348 45.8004661,9.08053642 C46.1079131,8.97589037 46.4878476,8.8911769 46.9302713,8.8276418 C47.320204,8.77905613 48.0925708,8.68811373 48.1925536,8.68686795 L48.3137827,8.89491426 C48.2962857,9.01326396 48.0750738,9.92642533 47.9725915,10.342518 Z" id="Shape"></path>
                    <path d="M42.4535433,2.80800235 C42.2385804,2.3931555 41.916136,2.05803899 41.5087062,1.79642386 C41.0912782,1.53730031 40.5963636,1.35541551 40.0177134,1.25076946 C39.4490614,1.14986077 38.7704284,1.09504617 37.9993114,1.09380038 L34.4111802,1.09629195 C34.0374947,1.10252089 33.6788065,1.39154331 33.5925714,1.74659241 L31.1792376,12.2186721 C31.0917527,12.5737212 31.3317113,12.8677268 31.6966483,12.8677268 L33.415102,12.8652352 C33.7800391,12.8677268 34.1537246,12.5762128 34.2399597,12.2174264 L34.8211095,9.67477649 C34.9060949,9.32097318 35.2747813,9.02323025 35.6459673,9.02572182 L36.1371326,9.02572182 C38.2380203,9.02572182 39.8664894,8.59467976 41.0387873,7.74131614 C42.1973375,6.87798622 42.7834864,5.74805804 42.7834864,4.34405687 C42.7772375,3.73237579 42.6710058,3.21537447 42.4535433,2.80800235 Z M38.7529315,6.23266891 C38.2355207,6.60391323 37.5131453,6.79330742 36.5883048,6.79330742 L36.1608785,6.79330742 C35.7921921,6.79701011 35.5534832,6.4980214 35.635969,6.14172651 L36.1558793,3.92298109 C36.2321162,3.56793199 36.604552,3.27018907 36.9757379,3.27392643 L37.531892,3.27018907 C38.1917782,3.27392643 38.6866929,3.38230983 39.0241347,3.60156823 C39.3603267,3.82082662 39.5190493,4.16466364 39.5227987,4.62062143 C39.5265481,5.31577019 39.2678427,5.8514583 38.7529315,6.23266891 Z" id="Shape"></path>
                    <path d="M57.1672559,1.83006009 C57.2459923,1.47251942 57.0210311,1.18225121 56.6523447,1.18717114 L55.1151098,1.18717114 C54.8001641,1.18717114 54.516463,1.42019639 54.3777369,1.70672725 L54.2927516,1.8387806 L54.2152649,2.17763447 L52.0668854,11.9122087 L51.9968975,12.2111974 L51.9993971,12.2186721 C51.9281594,12.5388392 52.1256253,12.7805218 52.4305727,12.8266159 L52.4568182,12.8627437 L54.052793,12.8627437 C54.3652391,12.8627437 54.6589384,12.6260443 54.7926654,12.3345303 L54.8751511,12.2099516 L57.172255,1.83130588 L57.1672559,1.83006009 Z" id="Path"></path>
                    <path d="M31.2267294,3.85072549 C30.8205494,3.85570863 29.1695841,3.85072549 29.1695841,3.85072549 C28.7996479,3.85072549 28.3247298,4.14846842 28.0897704,4.50351751 C28.0897704,4.50351751 25.6326941,8.70680053 25.3939852,9.12912209 L25.1090344,9.12538473 L24.3441663,4.5321706 C24.2591809,4.17089257 23.8804963,3.86193756 23.4093275,3.86193756 L21.8720926,3.86442914 C21.5021564,3.86442914 21.2746956,4.15843471 21.3584312,4.51722116 C21.3584312,4.51722116 22.5257299,11.1385754 22.7594396,12.6970541 C22.8681708,13.5566466 22.745692,13.7098784 22.745692,13.7098784 L21.225954,16.3484538 C21.0009928,16.7072402 21.1222219,17 21.4909083,17 L23.2681019,16.9975084 C23.6380381,16.9975084 24.1242042,16.7072402 24.3441663,16.347208 L31.1804874,4.82119302 C31.1804874,4.82243881 31.837874,3.83702184 31.2267294,3.85072549 Z" id="Path"></path>
                </g>
                <g id="apple-pay" transform="translate(262, 8)" fill="#FFFFFF">
                    <g id="Group">
                        <path d="M6.61488512,1.93431648 C7.02695512,1.41358147 7.30654475,0.714456727 7.2328534,0 C6.62965074,0.0303186567 5.89355755,0.402084782 5.46740554,0.923165111 C5.08473005,1.36945021 4.74607797,2.09785767 4.83439821,2.78234105 C5.51142894,2.84166617 6.18798115,2.44041014 6.61488512,1.93431648" id="Path"></path>
                        <path d="M7.22512879,2.91597796 C6.24177994,2.85679096 5.40567707,3.47980828 4.93604852,3.47980828 C4.4662149,3.47980828 3.74707483,2.94581317 2.96928246,2.96017827 C1.95694925,2.97523401 1.0176238,3.5534985 0.503903496,4.47321046 C-0.55272655,6.31311783 0.22506582,9.04234943 1.2525748,10.5408093 C1.75152949,11.2821316 2.35295481,12.0984562 3.14530771,12.0691044 C3.89397901,12.0394073 4.18744558,11.5793096 5.09744488,11.5793096 C6.00682895,11.5793096 6.27117445,12.0691044 7.06366407,12.0542559 C7.88554821,12.0394073 8.39933687,11.3125193 8.89829157,10.5704374 C9.47073253,9.72531343 9.70506829,8.90933409 9.71976555,8.86451221 C9.70499993,8.84966366 8.13499137,8.24114958 8.12043084,6.4165742 C8.10559687,4.88883159 9.35308614,4.16208165 9.4118068,4.11705258 C8.70743234,3.06453247 7.60671053,2.94581317 7.22512879,2.91597796" id="Path"></path>
                    </g>
                    <g id="Group" transform="translate(11.6578, 0.8484)">
                        <path d="M4.12972338,0 C6.26704596,0 7.75529677,1.48844576 7.75529677,3.65550455 C7.75529677,5.8302984 6.23635262,7.32647921 4.07612968,7.32647921 L1.70973501,7.32647921 L1.70973501,11.1284664 L0,11.1284664 L0,0 L4.12972338,0 Z M1.70966665,5.87657061 L3.67144249,5.87657061 C5.16003509,5.87657061 6.00721217,5.066876 6.00721217,3.66323961 C6.00721217,2.25974134 5.16003509,1.45764366 3.67909873,1.45764366 L1.70966665,1.45764366 L1.70966665,5.87657061 Z" id="Shape"></path>
                        <path d="M8.20202494,8.82266003 C8.20202494,7.40355352 9.27834247,6.5321166 11.1868664,6.42417113 L13.3851655,6.29308956 L13.3851655,5.66848379 C13.3851655,4.76617571 12.7820995,4.22631024 11.7746882,4.22631024 C10.8202553,4.22631024 10.2248456,4.68896327 10.0799922,5.41398664 L8.52276688,5.41398664 C8.61436837,3.94860792 9.8508518,2.86894605 11.8356647,2.86894605 C13.7821281,2.86894605 15.0263361,3.91007077 15.0263361,5.53726409 L15.0263361,11.1284664 L13.446142,11.1284664 L13.446142,9.79430737 L13.4081342,9.79430737 C12.9425389,10.6966845 11.9271979,11.267283 10.8738491,11.267283 C9.3013112,11.267283 8.20202494,10.2800965 8.20202494,8.82266003 L8.20202494,8.82266003 Z M13.3850971,8.09003973 L13.3850971,7.44996386 L11.4080088,7.57331037 C10.4232928,7.64278775 9.86609592,8.08237374 9.86609592,8.77645688 C9.86609592,9.48587201 10.4461931,9.94866317 11.3317198,9.94866317 C12.4843263,9.94852504 13.3850971,9.14649643 13.3850971,8.09003973 Z" id="Shape"></path>
                        <path d="M16.5180732,14.113093 L16.5180732,12.7634638 C16.6400263,12.7942659 16.9147624,12.7942659 17.052233,12.7942659 C17.8155332,12.7942659 18.2278082,12.4704295 18.4795756,11.6375298 C18.4795756,11.6220596 18.6247708,11.1439365 18.6247708,11.1362014 L15.7241481,3.01542867 L17.5101721,3.01542867 L19.5409225,9.61695359 L19.571274,9.61695359 L21.6020244,3.01542867 L23.3422477,3.01542867 L20.3344375,11.5525823 C19.6476997,13.5192893 18.8537746,14.1516301 17.1897036,14.1516301 C17.052233,14.1516301 16.6399579,14.13616 16.5180732,14.113093 L16.5180732,14.113093 Z" id="Path"></path>
                    </g>
                </g>
                <g id="google-pay" transform="translate(317, 8)" fill="#FFFFFF">
                    <g id="Pay_Typeface_3_" transform="translate(16.3407, 0.7968)">
                        <path d="M1.39501563,6.49852651 L1.39501563,10.9210788 L0,10.9210788 L0,0 L3.69824609,0 C4.63555469,0 5.43474219,0.314360526 6.08868359,0.943006909 C6.75717188,1.57165329 7.09137891,2.3391858 7.09137891,3.24560443 C7.09137891,4.17397603 6.75717188,4.94150853 6.08868359,5.56283726 C5.44201562,6.18416599 4.64282813,6.49120886 3.69824609,6.49120886 L1.39501563,6.49120886 L1.39501563,6.49852651 Z M1.39501563,1.34502997 L1.39501563,5.15349655 L3.72733984,5.15349655 C4.27952734,5.15349655 4.74458203,4.9634615 5.10780859,4.5906344 C5.47838281,4.21780729 5.66726953,3.76463531 5.66726953,3.25292208 C5.66726953,2.74852651 5.47838281,2.30259752 5.10780859,1.92984508 C4.74450781,1.54238267 4.28680078,1.35234762 3.72733984,1.35234762 L1.39501563,1.35234762 L1.39501563,1.34502997 Z" id="Letter_p_3_"></path>
                        <path d="M10.7387852,3.20177316 C11.7705,3.20177316 12.5843086,3.47954541 13.1800625,4.0350899 C13.7758906,4.5906344 14.0737305,5.35084925 14.0737305,6.31580912 L14.0737305,10.9210788 L12.7441016,10.9210788 L12.7441016,9.88309173 L12.6859883,9.88309173 C12.1119805,10.7383614 11.3418125,11.1623375 10.3827578,11.1623375 C9.56175,11.1623375 8.87871484,10.9210788 8.32652734,10.4313186 C7.77433984,9.94155831 7.49824609,9.33479023 7.49824609,8.603846 C7.49824609,7.82899584 7.78888672,7.21498477 8.37016797,6.76173812 C8.95144922,6.30124848 9.72889063,6.07462516 10.6952188,6.07462516 C11.5235,6.07462516 12.2065352,6.22814659 12.7369023,6.53511479 L12.7369023,6.21351128 C12.7369023,5.72375102 12.5480156,5.31441031 12.1628945,4.97085383 C11.7777734,4.62729735 11.3273398,4.4591406 10.8114453,4.4591406 C10.0340039,4.4591406 9.41642969,4.78806177 8.96592188,5.45329643 L7.73797266,4.67844627 C8.41373438,3.69153342 9.41642969,3.20177316 10.7387852,3.20177316 Z M8.93690234,8.6257243 C8.93690234,8.99123375 9.08949609,9.29827662 9.40188281,9.53946058 C9.70707031,9.78071922 10.0703711,9.90497003 10.4845117,9.90497003 C11.0730664,9.90497003 11.5961602,9.68566436 12.0539414,9.24705303 C12.5117227,8.80844169 12.7441758,8.29672846 12.7441758,7.70467036 C12.3082148,7.36111388 11.7051875,7.18563947 10.9277461,7.18563947 C10.3610117,7.18563947 9.88875781,7.3245256 9.51091016,7.59498019 C9.12578906,7.88007009 8.93690234,8.22370124 8.93690234,8.6257243 Z" id="Letter_a_3_"></path>
                        <polygon id="Letter_y_3_" points="21.6592578 3.44295713 17.0091563 14.2031969 15.5705 14.2031969 17.2997227 10.4385616 14.2335977 3.44295713 15.7521133 3.44295713 17.9609375 8.80844169 17.9900313 8.80844169 20.140668 3.44295713"></polygon>
                    </g>
                    <path d="M12.0706406,5.08696561 L6.22316797,5.08696561 L6.22316797,7.4992533 L9.59084375,7.5 C9.45428125,8.30262739 9.01468359,8.98682822 8.34114844,9.442987 L8.34114844,9.44343502 C8.34137109,9.44328568 8.34166797,9.44313634 8.34189062,9.442987 L8.28125391,10.8847892 L10.3465391,11.0073226 C10.3462422,11.0075466 10.3459453,11.0078453 10.3457227,11.0080693 L10.3457969,11.0080693 C11.5163008,9.91818662 12.1869414,8.30703291 12.1869414,6.40354633 C12.1868672,5.94589415 12.1461953,5.50802951 12.0706406,5.08696561 Z" id="Path"></path>
                    <path d="M8.34181641,9.442987 C8.34159375,9.44313634 8.34129687,9.44328568 8.34107422,9.44343502 C7.78317187,9.8217877 7.06480859,10.0431095 6.22457812,10.0431095 C4.60067187,10.0431095 3.22309766,8.94225025 2.72976562,7.45833416 L2.72954297,7.45833416 C2.72961719,7.45855817 2.72969141,7.45885685 2.72976562,7.45908086 L1.00558984,7.18437008 L0.662253906,9.07284801 C1.68684375,11.1179088 3.79228125,12.5211814 6.22465234,12.5211814 C7.90548437,12.5211814 9.31764453,11.9651889 10.3457227,11.0079947 C10.3460195,11.0077707 10.3463164,11.0075466 10.3465391,11.007248 L8.34181641,9.442987 Z" id="Path"></path>
                    <path d="M2.53501562,6.2609267 C2.53501562,5.84426833 2.60403906,5.44149858 2.72976563,5.06284722 L2.19138281,3.44878139 L0.661882812,3.44878139 C0.238316406,4.29456801 0,5.24922343 0,6.2609267 C0,7.27262998 0.239058594,8.2272854 0.661882812,9.07307202 L0.662179688,9.07284801 L2.72976563,7.45900619 C2.72969141,7.45878218 2.72961719,7.45855817 2.72954297,7.45825949 C2.60396484,7.07990681 2.53501562,6.67736106 2.53501562,6.2609267 Z" id="Path"></path>
                    <path d="M6.22457812,0 C3.79272656,0 1.68639844,1.40349655 0.661882812,3.44885606 L2.72969141,5.06292189 C3.22302344,3.57900579 4.60059766,2.47814659 6.22450391,2.47814659 C7.14214453,2.47814659 7.96396875,2.79616595 8.61278906,3.41749467 L10.3892891,1.63168794 C9.31037109,0.620582027 7.90370312,0 6.22457812,0 Z" id="Path"></path>
                </g>
            </g>
        </g>
    </g>
</svg>